<svg width="142" height="128" viewBox="0 0 142 128" fill="none" xmlns="http://www.w3.org/2000/svg">
<path d="M142 124.422L133.051 120.845V123.298H4.70436V8.9439H7.1588L3.5794 0L0 8.9439H2.45445V123.298V124.422V125.521H133.051V128L142 124.422Z" fill="#2D2D82"/>
<path d="M15.7492 106.228C18.7406 106.228 21.1695 103.801 21.1695 100.811C21.1695 99.0223 20.2746 97.4379 18.9451 96.4413L34.4644 63.63C34.899 63.7322 35.3337 63.8088 35.8195 63.8088C37.916 63.8088 39.7057 62.6078 40.6261 60.8701L73.0452 70.4529C73.0197 70.6318 72.9941 70.7851 72.9941 70.9895C72.9941 73.9793 75.423 76.407 78.4143 76.407C81.4057 76.407 83.8346 73.9793 83.8346 70.9895C83.8346 69.0985 82.863 67.4375 81.3801 66.4664L100.734 19.2171C101.067 19.2938 101.45 19.3193 101.808 19.3193C104.8 19.3193 107.229 16.8917 107.229 13.9019C107.229 10.912 104.8 8.48441 101.808 8.48441C98.8169 8.48441 96.3881 10.912 96.3881 13.9019C96.3881 15.7929 97.3596 17.4539 98.8425 18.4249L79.4626 65.6743C79.1302 65.5976 78.7467 65.5721 78.3888 65.5721C76.2923 65.5721 74.5026 66.7731 73.5822 68.5108L41.163 58.928C41.1886 58.7491 41.2141 58.5958 41.2141 58.3914C41.2141 55.4016 38.7852 52.9739 35.7939 52.9739C32.8025 52.9739 30.3737 55.4016 30.3737 58.3914C30.3737 60.1802 31.2685 61.7645 32.6236 62.7611L17.1043 95.5725C16.6697 95.4702 16.235 95.3936 15.7748 95.3936C12.7834 95.3936 10.3546 97.8212 10.3546 100.811C10.329 103.801 12.7579 106.228 15.7492 106.228ZM98.4079 13.9019C98.4079 12.0364 99.9163 10.5287 101.783 10.5287C103.649 10.5287 105.158 12.0364 105.158 13.9019C105.158 15.7673 103.649 17.275 101.783 17.275C99.9419 17.275 98.4079 15.7673 98.4079 13.9019ZM75.0139 70.9895C75.0139 69.1241 76.5224 67.6164 78.3888 67.6164C80.2552 67.6164 81.7636 69.1241 81.7636 70.9895C81.7636 72.855 80.2552 74.3626 78.3888 74.3626C76.5224 74.3626 75.0139 72.8294 75.0139 70.9895ZM32.419 58.3914C32.419 56.5259 33.9275 55.0183 35.7939 55.0183C37.6603 55.0183 39.1688 56.5259 39.1688 58.3914C39.1688 60.2568 37.6603 61.7645 35.7939 61.7645C33.9531 61.7645 32.419 60.2568 32.419 58.3914ZM15.7492 97.4123C17.6156 97.4123 19.1241 98.92 19.1241 100.785C19.1241 102.651 17.6156 104.159 15.7492 104.159C13.8828 104.159 12.3744 102.651 12.3744 100.785C12.3744 98.9456 13.9084 97.4123 15.7492 97.4123Z" fill="#B91E73"/>
<path d="M15.7494 119.695C18.7408 119.695 21.1696 117.267 21.1696 114.277C21.1696 113.127 20.8117 112.054 20.1725 111.185L48.0152 82.5392C48.8844 83.1014 49.8816 83.4336 50.981 83.4336C52.2849 83.4336 53.461 82.9481 54.407 82.1815L73.6335 98.2038C73.1988 98.9705 72.9431 99.8649 72.9431 100.81C72.9431 103.8 75.372 106.228 78.3634 106.228C81.3547 106.228 83.7836 103.8 83.7836 100.81C83.7836 99.6093 83.3745 98.5105 82.7098 97.5905L98.9194 79.9838C99.7375 80.4949 100.709 80.8016 101.757 80.8016C104.749 80.8016 107.178 78.3739 107.178 75.3841C107.178 72.3943 104.749 69.9667 101.757 69.9667C98.766 69.9667 96.3371 72.3943 96.3371 75.3841C96.3371 76.5852 96.7462 77.684 97.4109 78.6039L81.2013 96.2106C80.3576 95.6996 79.4116 95.3929 78.3634 95.3929C77.0595 95.3929 75.8834 95.8784 74.9374 96.6451L55.7109 80.6227C56.1455 79.8561 56.4012 78.9617 56.4012 78.0162C56.4012 75.0264 53.9723 72.5987 50.981 72.5987C47.9896 72.5987 45.5607 75.0264 45.5607 78.0162C45.5607 79.1661 45.9442 80.2394 46.5578 81.1082L18.7408 109.754C17.897 109.192 16.8744 108.86 15.775 108.86C12.7836 108.86 10.3547 111.288 10.3547 114.277C10.3547 117.267 12.758 119.695 15.7494 119.695Z" fill="#2D2D82"/>
<path d="M51.6672 21.322H58.1528C59.0759 21.322 59.8199 22.0731 59.8199 22.996C59.8199 23.9228 59.0719 24.6699 58.1528 24.6699H51.6672C50.748 24.6739 50 23.9228 50 23C50 22.5365 50.187 22.1171 50.4894 21.8134C50.7918 21.5098 51.2096 21.322 51.6672 21.322Z" fill="#B91E73"/>
<path d="M75.8947 22.972C75.9027 23.4475 75.7157 23.8749 75.4053 24.1865C75.1029 24.4902 74.6851 24.6779 74.2236 24.6779H67.738C66.8149 24.6779 66.0708 23.9269 66.0708 23.004C66.0708 22.0772 66.8188 21.3301 67.738 21.3301H74.1838C75.1029 21.3221 75.8788 22.0492 75.8947 22.972Z" fill="#B91E73"/>
<path d="M64.6144 11.6739V18.1859C64.6144 19.1128 63.8664 19.8638 62.9473 19.8638C62.0242 19.8638 61.2761 19.1128 61.2761 18.1859V11.6739C61.2761 10.7471 62.0242 10 62.9433 10C63.4048 10 63.8226 10.1878 64.125 10.4914C64.4274 10.795 64.6144 11.2105 64.6144 11.6739Z" fill="#B91E73"/>
<path d="M62.9473 26.136C63.8704 26.136 64.6144 26.8871 64.6144 27.814V34.3259C64.6144 35.2528 63.8664 35.9999 62.9433 35.9999C62.4817 35.9999 62.0639 35.8121 61.7655 35.5085C61.4631 35.2048 61.2761 34.7854 61.2761 34.3219V27.81C61.2761 26.8831 62.0242 26.136 62.9473 26.136Z" fill="#B91E73"/>
</svg>
