<svg width="900" height="52" viewBox="0 0 900 52" fill="none" xmlns="http://www.w3.org/2000/svg">
<path d="M873.998 52C859.662 52 848 40.3381 848 26.0018C848 11.6619 859.662 0 873.998 0C888.335 0 900 11.6619 900 26.0018C900 40.3381 888.338 52 873.998 52ZM873.998 1.42261C860.448 1.42261 849.423 12.4478 849.423 26.0018C849.423 39.5521 860.448 50.5774 873.998 50.5774C887.549 50.5774 898.577 39.5521 898.577 26.0018C898.577 12.4478 887.552 1.42261 873.998 1.42261Z" fill="#2D2D82"/>
<path d="M866.473 18.6324C866.64 17.5263 866.953 16.5554 867.412 15.7232C867.87 14.8874 868.443 14.1939 869.133 13.6426C869.823 13.0913 870.605 12.6752 871.487 12.3978C872.369 12.1204 873.323 11.9817 874.343 11.9817C875.428 11.9817 876.403 12.1346 877.263 12.444C878.124 12.7535 878.853 13.1731 879.447 13.703C880.041 14.233 880.5 14.8554 880.816 15.5667C881.133 16.278 881.293 17.0391 881.293 17.85C881.293 18.5684 881.218 19.205 881.065 19.7527C880.912 20.3004 880.688 20.777 880.393 21.186C880.094 21.5914 879.731 21.9364 879.298 22.2174C878.864 22.4983 878.366 22.7331 877.804 22.9216C880.411 23.7787 881.716 25.5143 881.716 28.1319C881.716 29.2913 881.503 30.3085 881.076 31.1905C880.649 32.0725 880.073 32.8087 879.354 33.4062C878.636 34.0002 877.797 34.4483 876.844 34.7435C875.89 35.0422 874.891 35.188 873.845 35.188C872.739 35.188 871.765 35.0636 870.918 34.811C870.072 34.5585 869.329 34.1851 868.688 33.6836C868.048 33.1822 867.497 32.5562 867.038 31.7987C866.579 31.0411 866.178 30.1591 865.833 29.1455L867.742 28.3631C868.244 28.1532 868.71 28.0963 869.144 28.1923C869.578 28.2848 869.887 28.516 870.075 28.8823C870.285 29.2771 870.506 29.6434 870.741 29.9777C870.975 30.312 871.238 30.6001 871.53 30.8455C871.822 31.0909 872.152 31.283 872.522 31.4181C872.892 31.5533 873.319 31.6208 873.799 31.6208C874.404 31.6208 874.93 31.5213 875.378 31.3221C875.826 31.1229 876.203 30.8669 876.506 30.5468C876.808 30.2302 877.036 29.8675 877.185 29.4656C877.334 29.0637 877.413 28.6654 877.413 28.267C877.413 27.7442 877.366 27.2748 877.27 26.8515C877.178 26.4283 876.961 26.0691 876.619 25.7703C876.282 25.4716 875.78 25.244 875.119 25.0804C874.457 24.9203 873.557 24.8385 872.419 24.8385V21.8013C873.369 21.8013 874.144 21.723 874.752 21.5665C875.36 21.41 875.833 21.1895 876.175 20.9086C876.516 20.6276 876.755 20.2862 876.886 19.8914C877.018 19.4966 877.082 19.0627 877.082 18.5933C877.082 17.601 876.822 16.847 876.306 16.3242C875.791 15.8014 875.058 15.5418 874.109 15.5418C873.692 15.5418 873.308 15.6022 872.96 15.7232C872.611 15.8441 872.298 16.0077 872.021 16.2175C871.743 16.4273 871.505 16.6727 871.31 16.9537C871.11 17.2347 870.965 17.5441 870.872 17.8784C870.673 18.4012 870.417 18.7462 870.104 18.9205C869.791 19.0912 869.336 19.1303 868.742 19.0378L866.473 18.6324Z" fill="#2D2D82"/>
<g clip-path="url(#clip0_1_1139)">
<path d="M450.002 52C435.662 52 424 40.3381 424 26.0018C424 11.6619 435.662 0 450.002 0C464.342 0 476.004 11.6619 476.004 26.0018C476 40.3381 464.338 52 450.002 52ZM450.002 1.42261C436.448 1.42261 425.423 12.4478 425.423 26.0018C425.423 39.5521 436.448 50.5774 450.002 50.5774C463.556 50.5774 474.581 39.5521 474.581 26.0018C474.577 12.4478 463.552 1.42261 450.002 1.42261Z" fill="#2D2D82"/>
<path d="M456.244 30.9811C456.713 30.9811 457.079 31.1127 457.346 31.3723C457.613 31.6319 457.744 31.9769 457.744 32.4037V34.9395H442.003V33.5311C442.003 33.2608 442.06 32.9656 442.174 32.6456C442.288 32.329 442.483 32.0374 442.754 31.7778L449.483 25.0346C450.055 24.462 450.564 23.9107 451.001 23.3844C451.439 22.858 451.805 22.3423 452.097 21.8337C452.388 21.3287 452.609 20.813 452.755 20.2937C452.9 19.7709 452.975 19.2232 452.975 18.6506C452.975 17.6406 452.715 16.8688 452.193 16.3424C451.67 15.8161 450.934 15.5529 449.988 15.5529C449.571 15.5529 449.187 15.6133 448.839 15.7343C448.49 15.8552 448.177 16.0188 447.9 16.2286C447.622 16.4385 447.388 16.6839 447.189 16.9648C446.989 17.2458 446.844 17.5552 446.751 17.8895C446.563 18.4123 446.31 18.7573 445.994 18.9316C445.674 19.1023 445.225 19.1414 444.639 19.0489L442.355 18.6435C442.522 17.5374 442.835 16.5665 443.294 15.7343C443.753 14.8985 444.326 14.205 445.016 13.6537C445.706 13.1024 446.492 12.6863 447.377 12.4089C448.263 12.1315 449.219 11.9928 450.24 11.9928C451.314 11.9928 452.292 12.1528 453.174 12.4694C454.056 12.7895 454.81 13.2305 455.436 13.7995C456.062 14.3686 456.546 15.055 456.891 15.8587C457.236 16.6625 457.406 17.5481 457.406 18.519C457.406 19.3548 457.286 20.1266 457.047 20.8343C456.805 21.5456 456.482 22.2178 456.069 22.8615C455.657 23.5017 455.18 24.1277 454.636 24.7323C454.092 25.3369 453.519 25.9486 452.915 26.5639L448.092 31.4826C448.625 31.3261 449.152 31.2052 449.671 31.1162C450.194 31.0273 450.681 30.9847 451.143 30.9847H456.244V30.9811Z" fill="#2D2D82"/>
</g>
<path d="M25.9982 52C11.6619 52 0 40.3381 0 26.0018C0 11.6619 11.6619 0 25.9982 0C40.3346 0 52 11.6619 52 26.0018C52 40.3381 40.3381 52 25.9982 52ZM25.9982 1.42261C12.4478 1.42261 1.42261 12.4478 1.42261 26.0018C1.42261 39.5521 12.4478 50.5774 25.9982 50.5774C39.5486 50.5774 50.5774 39.5521 50.5774 26.0018C50.5774 12.4478 39.5521 1.42261 25.9982 1.42261Z" fill="#2D2D82"/>
<path d="M33.2287 31.7636V34.9396H20.4927V31.7636H24.9989V19.3371C24.9989 19.0668 25.0024 18.7894 25.0131 18.5084C25.0238 18.2275 25.038 17.9394 25.0593 17.6477L22.0861 20.1195C21.8762 20.276 21.6735 20.3756 21.4743 20.4183C21.2752 20.461 21.0902 20.461 20.9124 20.4254C20.7346 20.3898 20.5781 20.3258 20.4429 20.2369C20.3078 20.148 20.2011 20.0555 20.13 19.963L18.7678 18.1314L25.7493 12.2169H29.3023V31.7636H33.2287Z" fill="#2D2D82"/>
<defs>
<clipPath id="clip0_1_1139">
<rect width="52" height="52" fill="white" transform="translate(424)"/>
</clipPath>
</defs>
</svg>
