<svg width="145" height="158" viewBox="0 0 145 158" fill="none" xmlns="http://www.w3.org/2000/svg">
<g clip-path="url(#clip0_1_1322)">
<path d="M75.1293 154.491L80.0164 113.582C80.1718 113.444 80.2841 113.245 80.3014 113.02C80.3359 112.666 80.1546 112.329 79.8437 112.164L52.4118 97.7128C46.5834 94.6444 42.7497 89.0522 42.1539 82.7425L41.2818 73.4769C41.3077 73.4769 41.325 73.4855 41.3423 73.4855C41.4027 73.4855 41.4631 73.4769 41.515 73.4683L44.3125 72.7854C46.4798 72.2582 47.9132 70.2702 47.6368 68.1613C47.3087 65.672 46.0826 62.5172 42.1194 61.601C41.7135 61.5059 41.3164 61.7565 41.2214 62.1628C41.1264 62.569 41.3768 62.9666 41.7826 63.0617C44.2953 63.6408 45.7718 65.4213 46.1517 68.36C46.3244 69.7084 45.3832 70.9876 43.9585 71.342L41.1609 72.0248C41.1523 72.0248 41.1437 72.0335 41.135 72.0335L40.1766 61.9121C40.0039 60.0797 41.3423 58.3424 43.285 57.8671C47.8873 56.7434 52.5499 58.9993 54.1041 63.0358L55.1662 66.8215C56.3146 70.9098 58.5682 74.661 61.6939 77.6689C64.5692 80.4434 68.5152 81.7831 72.5303 81.3423L74.5162 81.1262C81.7002 79.8125 86.2765 72.094 86.0347 65.6979C85.6634 55.7581 79.766 47.521 69.914 43.1215L63.3949 39.5951C58.62 37.0107 56.6859 31.3839 58.8877 26.5004C59.3885 25.3854 60.3901 24.5297 61.6162 24.1494C62.8682 23.7691 64.1979 23.9247 65.2859 24.5989C65.3118 24.6162 68.2562 26.3276 72.1849 28.4452C72.3317 28.523 72.4957 28.5489 72.6598 28.5402C76.0186 30.485 85.318 35.6364 91.0514 36.6304C96.7329 38.5492 101.016 42.7412 102.812 48.1606L106.084 57.9967C106.188 58.3165 106.481 58.5153 106.801 58.5153C106.879 58.5153 106.965 58.5067 107.043 58.4721C107.44 58.3424 107.656 57.9103 107.517 57.5127L104.245 47.6766C102.285 41.7905 97.6309 37.2354 91.4745 35.1697L91.3622 35.1437C85.862 34.2103 76.4417 28.9724 73.2728 27.14C71.4855 24.3655 71.0451 21.2021 72.0899 18.4448C72.418 17.5719 73.1088 16.9323 74.0413 16.6297C75.2156 16.2494 76.5799 16.4742 77.7283 17.2348C77.7801 17.2694 83.4098 20.8045 89.4713 24.2272C89.6008 24.305 89.7562 24.3309 89.903 24.3309C96.1976 27.8661 100.662 29.975 103.14 30.5887C108.51 32.7495 112.767 36.9329 114.831 42.0843C114.952 42.3782 115.228 42.5511 115.522 42.5511C115.617 42.5511 115.712 42.5338 115.798 42.4992C116.178 42.3436 116.368 41.9115 116.212 41.5312C113.993 35.9908 109.408 31.4876 103.641 29.1885L103.537 29.1539C101.24 28.6007 96.7934 26.4918 90.6715 23.0517C89.9203 20.9428 90.0498 18.7301 91.0341 16.9495C91.3709 16.3359 91.958 15.9296 92.6747 15.8086C93.0373 15.7481 93.4172 15.7827 93.7972 15.8691C93.6936 15.921 93.5899 15.9988 93.5209 16.1025C92.502 17.6064 92.6574 19.3351 93.9526 20.9514C94.462 21.591 95.2564 21.9454 96.0767 21.9454C96.5343 21.9454 97.0006 21.833 97.4323 21.5997L98.7707 20.8736C99.1333 20.6748 99.2628 20.2254 99.0729 19.8623C98.8743 19.4993 98.4253 19.361 98.0626 19.5598L96.7156 20.2859C96.1717 20.5797 95.4723 20.4674 95.1183 20.0179C93.7972 18.3584 94.5225 17.2866 94.7556 16.9323C94.8851 16.7421 94.9024 16.5174 94.8506 16.3186C94.9974 16.4137 95.1442 16.5087 95.2737 16.6211C95.8176 17.0792 108.519 27.8661 113.415 29.8281C117.249 32.0322 120.003 35.6796 120.979 39.8457C120.996 39.9235 121.031 40.0013 121.065 40.0704C126.427 49.6559 129.018 60.9095 131.522 71.7828C131.772 72.8632 132.022 73.9436 132.273 75.0154C133.939 82.1548 135.433 89.7004 136.702 97.4448C137.479 102.19 138.205 107.134 138.844 112.147C140.648 126.288 142.732 144.136 143.5 158H74.7756L75.1293 154.491Z" fill="white"/>
<path d="M57.8861 31.0037C54.3977 25.8004 48.4744 22.3776 41.7481 22.3776C31.024 22.3776 22.329 31.0814 22.329 41.8165C22.329 51.7995 29.8497 60.0279 39.5376 61.1256C40.1766 58.6191 42.1625 56.5101 45.5127 56.5101C47.9045 56.5101 49.5969 57.5905 50.6071 59.1204C56.8758 55.8964 61.1758 49.3621 61.1758 41.8165C61.1758 40.2952 60.9945 38.8172 60.6664 37.3997C58.5164 36.06 57.5925 33.4497 57.8861 31.0037Z" fill="white"/>
<path d="M39.9866 60.9096C30.1518 60.0625 22.4066 51.7909 22.4066 41.73C22.398 31.116 31.0325 22.4727 41.6444 22.4727C48.3362 22.4727 54.2336 25.9128 57.6788 31.116C57.6529 30.4246 57.6788 29.7331 57.7478 29.0503C53.9832 24.2792 48.1721 21.1935 41.6358 21.1935C30.3159 21.1935 21.1115 30.4073 21.1115 41.7387C21.1115 52.3959 29.2538 61.1775 39.6412 62.1802C39.7275 61.748 39.8398 61.3245 39.9866 60.9096Z" fill="#2D2D82" stroke="#2D2D82" stroke-miterlimit="10"/>
<path d="M62.1083 40.6409C61.5988 40.226 61.1326 39.7852 60.7095 39.2926C60.8131 40.0964 60.8822 40.9002 60.8822 41.73C60.8822 48.7051 57.1434 54.8073 51.5828 58.1869C51.8936 58.4894 52.1785 58.8178 52.4203 59.1722C58.2573 55.542 62.1601 49.0941 62.1601 41.7213C62.1601 41.367 62.1256 41.0039 62.1083 40.6409Z" fill="#2D2D82" stroke="#2D2D82" stroke-miterlimit="10"/>
<path d="M43.6649 53.0268H39.4771V49.5263C37.6898 49.1373 36.0233 48.3854 34.7368 47.3827L34.4 47.1234L36.5069 42.8536L37.0163 43.2858C38.3633 44.4267 40.7032 45.3948 42.1279 45.3948C42.5769 45.3948 43.1123 45.317 43.1123 44.928C43.1123 44.4527 41.9639 44.1588 40.8587 43.8649C38.5878 43.2772 35.4793 42.4733 35.4793 38.9555C35.4793 36.6304 36.9645 34.8499 39.4858 34.1412V30.7271H43.6735V33.9337C45.435 34.1585 47.1533 34.7548 48.4484 35.5932L48.8284 35.8439L46.7906 40.0964L46.3071 39.8198C44.7701 38.9469 42.7496 38.2554 41.7049 38.2554C41.4458 38.2554 41.0141 38.29 41.0141 38.532C41.0141 38.9728 42.1279 39.2839 43.2073 39.5778C45.5041 40.2088 48.6557 41.0731 48.6557 44.6947C48.6557 47.3655 46.8079 49.2065 43.6908 49.6819V53.0268H43.6649ZM40.5219 51.9896H42.6374V48.7657L43.1037 48.7138C44.4593 48.5755 47.6109 47.8927 47.6109 44.6947C47.6109 41.8683 45.1241 41.1855 42.931 40.5804C41.4113 40.1656 39.9779 39.768 39.9779 38.532C39.9779 37.901 40.4269 37.2182 41.7049 37.2182C42.9655 37.2182 44.891 37.901 46.333 38.653L47.49 36.2242C46.2639 35.5241 44.701 35.0574 43.1037 34.9104L42.6287 34.8672V31.7556H40.5133V34.9536L40.1075 35.0487C37.8193 35.5673 36.5069 36.9935 36.5069 38.9469C36.5069 41.6609 38.9504 42.2918 41.1091 42.8536C42.6633 43.2599 44.1398 43.6402 44.1398 44.9194C44.1398 45.2738 43.993 46.4233 42.1193 46.4233C40.6083 46.4233 38.4151 45.5936 36.8609 44.4699L35.7038 46.8123C36.9127 47.668 38.4583 48.2903 40.0816 48.5928L40.5047 48.6706V51.9896H40.5219Z" fill="#2D2D82" stroke="#2D2D82" stroke-width="0.75" stroke-miterlimit="10"/>
<path d="M73.031 157.481H74.7665L80.0163 113.582C80.1718 113.444 80.284 113.245 80.3013 113.02C80.3358 112.666 80.1545 112.329 79.8437 112.164L52.4117 97.7128C46.5834 94.6444 42.7496 89.0522 42.1538 82.7426L40.1852 61.9035C40.0125 60.0711 41.3508 58.3338 43.2936 57.8584C47.8958 56.7348 52.5585 58.9907 54.1127 63.0271L55.1747 66.8129C56.3231 70.9012 58.5768 74.6524 61.7025 77.6603C64.5778 80.4348 68.5238 81.7745 72.5388 81.3337L74.5248 81.1176C81.7087 79.8038 86.285 72.0853 86.0433 65.6893C85.672 55.7495 79.7746 47.5124 69.9226 43.1129L63.4035 39.5864C58.6286 37.0021 56.6944 31.3753 58.8962 26.4918C59.397 25.3768 60.3987 24.5211 61.6248 24.1408C62.8768 23.7605 64.2065 23.9161 65.2944 24.5903C65.3203 24.6075 68.2647 26.3189 72.1934 28.4365C72.5388 28.6267 72.9706 28.5489 73.2382 28.2637C73.5059 27.9698 73.5404 27.5376 73.3246 27.2092C71.494 24.4174 71.0537 21.2194 72.0985 18.4449C72.4266 17.5719 73.1173 16.9323 74.0499 16.6298C75.2242 16.2495 76.5884 16.4742 77.7368 17.2348C77.7886 17.2694 83.4184 20.8045 89.4798 24.2272C89.7993 24.4088 90.1878 24.3655 90.4642 24.1322C90.7405 23.8988 90.8354 23.5098 90.7146 23.1728C89.9202 21.0292 90.0324 18.7647 91.034 16.9496C91.3708 16.3359 91.9579 15.9297 92.6746 15.8086C93.5553 15.6531 94.5224 15.9556 95.2736 16.6298C95.8176 17.0879 108.519 27.8747 113.415 29.8368C117.249 32.0408 120.003 35.6883 120.979 39.8544C120.996 39.9322 121.03 40.01 121.065 40.0791C126.427 49.6645 129.017 60.9182 131.521 71.7915C131.772 72.8719 132.022 73.9523 132.273 75.0241C133.939 82.1635 135.433 89.7091 136.702 97.4535C137.479 102.199 138.205 107.143 138.844 112.156C140.786 127.316 141.943 142.693 142.712 157.473H144.439C143.662 142.624 142.505 127.178 140.553 111.94C139.906 106.909 139.189 101.939 138.403 97.1769C137.125 89.3979 135.623 81.8091 133.948 74.6351C133.697 73.5633 133.447 72.4829 133.197 71.4025C130.675 60.4428 128.068 49.1114 122.619 39.3358C121.505 34.7375 118.44 30.727 114.209 28.3069C114.175 28.2896 114.131 28.2637 114.097 28.255C109.512 26.4659 96.5083 15.4283 96.3961 15.3333C95.2563 14.3133 93.7971 13.8725 92.3724 14.1146C91.1377 14.322 90.1015 15.0567 89.5144 16.1198C88.5905 17.788 88.271 19.7586 88.5559 21.7293C83.2457 18.6696 78.6953 15.8173 78.6607 15.7914C77.0979 14.7542 75.1724 14.4516 73.5059 14.9875C72.0639 15.4543 70.9846 16.4655 70.4665 17.8398C69.534 20.3032 69.5858 23.0172 70.5529 25.5929C67.9366 24.1495 66.1665 23.1209 66.1665 23.1209C64.6728 22.1961 62.825 21.9713 61.0981 22.4986C59.3884 23.0172 58.0069 24.2186 57.2988 25.7917C54.7171 31.5136 56.9794 38.0998 62.5573 41.1163L69.1368 44.6687C78.4276 48.8175 83.9537 56.5101 84.2991 65.7584C84.5149 71.4284 80.4999 78.2739 74.2571 79.4149L72.3316 79.6223C68.8346 80.0026 65.3894 78.8358 62.8768 76.4243C59.9756 73.6325 57.8774 70.1492 56.8153 66.3548L55.7274 62.4912C53.845 57.5732 48.3189 54.8592 42.8619 56.1816C40.0902 56.8558 38.1906 59.3883 38.4496 62.0677L40.4183 82.9068C41.0659 89.7955 45.245 95.9063 51.5828 99.2427L78.2894 113.305L73.031 157.481Z" fill="#2D2D82" stroke="#2D2D82" stroke-width="1.2" stroke-miterlimit="10"/>
<path d="M66.9782 32.5508C66.1838 32.5508 65.3895 32.3088 64.7419 31.8248C62.3587 30.0442 61.5125 27.7624 62.3587 25.3855C62.4969 24.9965 62.9286 24.7977 63.3085 24.936C63.6971 25.0743 63.8957 25.4979 63.7575 25.8868C63.1358 27.6328 63.7662 29.2318 65.6312 30.6234C66.4774 31.2543 67.7726 31.1765 68.5842 30.4505L70.268 28.9379C70.5702 28.6613 71.0451 28.6872 71.3214 28.9898C71.5977 29.2923 71.5718 29.7677 71.2696 30.0442L69.5858 31.5568C68.8519 32.2224 67.9107 32.5508 66.9782 32.5508Z" fill="#2D2D82" stroke="#2D2D82" stroke-width="1.2" stroke-miterlimit="10"/>
<path d="M80.1804 25.0138C79.386 25.0138 78.5916 24.7718 77.944 24.2878C75.5609 22.5072 74.7147 20.2254 75.5609 17.8485C75.699 17.4595 76.1308 17.2607 76.5107 17.399C76.8992 17.5373 77.0978 17.9608 76.9597 18.3498C76.338 20.0957 76.9683 21.6948 78.8334 23.0863C79.6796 23.7173 80.9747 23.6395 81.7864 22.9135L83.4701 21.4009C83.7723 21.1243 84.2472 21.1502 84.5235 21.4527C84.7998 21.7553 84.7739 22.2306 84.4717 22.5072L82.788 24.0198C82.0627 24.6853 81.1215 25.0138 80.1804 25.0138Z" fill="#2D2D82" stroke="#2D2D82" stroke-width="1.2" stroke-miterlimit="10"/>
<path d="M96.0766 21.954C95.265 21.954 94.4706 21.6083 93.9525 20.96C92.6573 19.3351 92.5106 17.6151 93.5208 16.1111C93.7539 15.7654 94.2116 15.679 94.5569 15.9123C94.8937 16.1457 94.9887 16.6038 94.7555 16.9495C94.5138 17.3039 93.7885 18.3757 95.1182 20.0352C95.4722 20.476 96.1716 20.597 96.7156 20.3032L98.0626 19.5771C98.4252 19.3783 98.8742 19.5166 99.0728 19.8796C99.2714 20.2426 99.1333 20.6921 98.7706 20.8909L97.4322 21.6083C97.0005 21.8417 96.5343 21.954 96.0766 21.954Z" fill="#2D2D82" stroke="#2D2D82" stroke-width="1.2" stroke-miterlimit="10"/>
<path d="M115.53 42.5598C115.237 42.5598 114.952 42.3869 114.84 42.093C112.776 36.9416 108.519 32.7582 103.148 30.5974C100.601 29.9665 95.9817 27.771 89.4194 24.0631C89.0568 23.8643 88.9359 23.4062 89.1345 23.0431C89.3331 22.6888 89.7907 22.5591 90.1534 22.7579C96.5516 26.3708 101.188 28.5835 103.554 29.154L103.658 29.1886C109.426 31.4877 114.002 35.9908 116.23 41.5312C116.385 41.9115 116.195 42.3523 115.815 42.4993C115.72 42.5425 115.625 42.5598 115.53 42.5598Z" fill="#2D2D82" stroke="#2D2D82" stroke-width="1.2" stroke-miterlimit="10"/>
<path d="M106.809 58.5067C106.49 58.5067 106.196 58.3079 106.093 57.9881L102.82 48.152C101.024 42.7412 96.7328 38.5406 91.0599 36.6218C84.1091 35.4204 71.9344 28.1081 71.4163 27.7969C71.0537 27.5809 70.9414 27.1141 71.1573 26.7597C71.3732 26.3967 71.8394 26.2844 72.1934 26.5004C72.3143 26.5782 84.7049 34.0115 91.3622 35.1351L91.4744 35.1611C97.6395 37.2182 102.293 41.7818 104.254 47.6679L107.526 57.504C107.656 57.9016 107.44 58.3338 107.051 58.4635C106.973 58.498 106.896 58.5067 106.809 58.5067Z" fill="#2D2D82" stroke="#2D2D82" stroke-width="1.2" stroke-miterlimit="10"/>
<path d="M41.3422 73.4856C41.0055 73.4856 40.7033 73.2609 40.6169 72.9152C40.5219 72.5176 40.7637 72.1113 41.1695 72.0162L43.9671 71.3334C45.4005 70.9877 46.3416 69.7085 46.1603 68.3515C45.7717 65.4127 44.3039 63.6322 41.7912 63.0531C41.394 62.958 41.1436 62.5605 41.23 62.1542C41.325 61.748 41.7135 61.4973 42.128 61.5924C46.0912 62.5086 47.3173 65.6634 47.6454 68.1527C47.9217 70.2617 46.497 72.2496 44.3211 72.7769L41.5235 73.4683C41.4631 73.477 41.4027 73.4856 41.3422 73.4856Z" fill="#2D2D82" stroke="#2D2D82" stroke-width="1.2" stroke-miterlimit="10"/>
<path d="M33.9856 0.700083C32.2069 1.02853 30.4282 1.48663 28.7099 2.04844C28.2091 2.21266 27.9414 2.74855 28.1055 3.24986C28.235 3.63881 28.5976 3.90676 29.0035 3.90676C29.1071 3.90676 29.2021 3.88947 29.297 3.86354C30.9376 3.32765 32.63 2.89549 34.331 2.57568C34.5814 2.53247 34.7972 2.38553 34.944 2.17809C35.0908 1.97065 35.1426 1.72 35.0908 1.46934C34.9958 0.950739 34.495 0.605006 33.9856 0.700083Z" fill="#B91E73"/>
<path d="M6.72632 60.7021C6.60543 60.4774 6.40684 60.3131 6.16507 60.244C5.9233 60.1749 5.66427 60.2008 5.43977 60.3218C5.21527 60.4428 5.05121 60.6416 4.98214 60.8836C4.91306 61.1256 4.93896 61.3849 5.05985 61.6096C5.9233 63.2 6.90764 64.7472 7.96969 66.2165C8.15102 66.4585 8.43596 66.6055 8.73816 66.6055C8.93676 66.6055 9.13535 66.545 9.29941 66.424C9.50664 66.277 9.63616 66.0523 9.67933 65.8017C9.7225 65.551 9.66206 65.3003 9.50664 65.0929C8.48776 63.7013 7.5466 62.2233 6.72632 60.7021Z" fill="#B91E73"/>
<path d="M22.4326 4.99585C22.1908 4.9267 21.9318 4.95263 21.7159 5.07364C20.1272 5.93797 18.5816 6.92331 17.1224 7.99508C16.6993 8.30624 16.6043 8.90263 16.9151 9.32615C17.0965 9.56816 17.3814 9.7151 17.6836 9.7151C17.8822 9.7151 18.0808 9.6546 18.2448 9.53359C19.6436 8.51368 21.1202 7.57156 22.6312 6.75044C23.0888 6.49978 23.2615 5.92068 23.0111 5.46259C22.8816 5.22922 22.6744 5.06499 22.4326 4.99585Z" fill="#B91E73"/>
<path d="M29.3834 79.5358C27.7428 78.9999 26.1109 78.3517 24.5567 77.6083C24.0818 77.3836 23.5205 77.5824 23.296 78.0578C23.0715 78.5332 23.2701 79.095 23.745 79.3197C25.377 80.0976 27.0866 80.7805 28.8049 81.3423C28.8999 81.3768 28.9948 81.3855 29.0984 81.3855C29.5129 81.3855 29.8756 81.1175 30.0051 80.7286C30.1519 80.2359 29.8842 79.7 29.3834 79.5358Z" fill="#B91E73"/>
<path d="M18.3053 73.8917C16.9065 72.8718 15.5595 71.7568 14.3075 70.564C14.1262 70.3912 13.8844 70.2961 13.6254 70.3047C13.375 70.3134 13.1332 70.4171 12.9605 70.5986C12.7878 70.7801 12.6928 71.0221 12.7015 71.2814C12.7101 71.5321 12.8137 71.7741 12.995 71.947C14.3075 73.1916 15.7149 74.3671 17.1828 75.4302C17.3469 75.5512 17.5368 75.6117 17.744 75.6117C18.0463 75.6117 18.3312 75.4648 18.5125 75.2228C18.6593 75.0154 18.7197 74.7647 18.6852 74.514C18.642 74.2634 18.5125 74.0387 18.3053 73.8917Z" fill="#B91E73"/>
<path d="M8.12516 18.5485C8.28922 18.6696 8.47918 18.7301 8.67778 18.7301C8.97999 18.7301 9.26493 18.5831 9.44625 18.3411C10.4651 16.9409 11.579 15.5925 12.7706 14.3392C13.1332 13.9589 13.1159 13.3539 12.736 12.9995C12.3561 12.6365 11.7517 12.6538 11.3977 13.0341C10.1543 14.3479 8.97999 15.7654 7.91794 17.2261C7.60709 17.6496 7.70207 18.246 8.12516 18.5485Z" fill="#B91E73"/>
<path d="M1.8996 41.7299V41.6781C1.8996 39.9581 2.01185 38.2294 2.22771 36.5353C2.26225 36.2846 2.19318 36.034 2.03775 35.8352C1.88233 35.6364 1.65783 35.5067 1.40743 35.4722C1.15703 35.4376 0.906628 35.5067 0.708033 35.6623C0.509438 35.8179 0.37992 36.0426 0.345382 36.2933C0.112249 38.0652 0 39.8803 0 41.6867V41.7386C0 42.2658 0.423093 42.6893 0.9498 42.6893C1.46787 42.6807 1.8996 42.2572 1.8996 41.7299Z" fill="#B91E73"/>
<path d="M2.6249 30.0442C2.71988 30.0788 2.81486 30.0874 2.91848 30.0874C3.33293 30.0874 3.69558 29.8195 3.8251 29.4305C4.36045 27.7883 4.9994 26.1547 5.75061 24.5903C5.97511 24.1149 5.77651 23.5531 5.30161 23.3283C5.06848 23.216 4.81808 23.2073 4.57631 23.2938C4.33454 23.3802 4.14458 23.5531 4.04097 23.7778C3.26386 25.42 2.58173 27.1227 2.02912 28.8428C1.84779 29.3527 2.1241 29.8886 2.6249 30.0442Z" fill="#B91E73"/>
<path d="M2.56443 48.9817C2.46945 48.4631 1.97729 48.126 1.45921 48.2211C0.941139 48.3162 0.604392 48.8175 0.699372 49.3275C1.02748 51.108 1.48512 52.8885 2.03773 54.6085C2.16725 54.9975 2.5299 55.2654 2.93572 55.2654C3.03934 55.2654 3.13431 55.2481 3.2293 55.2222C3.7301 55.058 3.99777 54.5221 3.83371 54.0294C3.30701 52.3786 2.87528 50.6758 2.56443 48.9817Z" fill="#B91E73"/>
<path d="M59.5007 4.01912C57.8602 3.24122 56.1591 2.5584 54.4322 2.00523C54.1905 1.92744 53.9314 1.94472 53.7069 2.06573C53.4824 2.17809 53.3097 2.37689 53.232 2.6189C53.068 3.12022 53.3443 3.6561 53.8451 3.81168C55.4943 4.33893 57.1176 4.98717 58.6804 5.7305C58.8099 5.791 58.9481 5.82558 59.0863 5.82558C59.4489 5.82558 59.7857 5.60949 59.9411 5.28105C60.0533 5.04768 60.062 4.79702 59.9756 4.55501C59.9065 4.32164 59.7339 4.13149 59.5007 4.01912Z" fill="#B91E73"/>
<path d="M46.9979 0.345733C45.2364 0.112363 43.4318 0 41.6358 0H41.5667C41.04 0 40.6169 0.423523 40.6169 0.950766C40.6169 1.47801 41.04 1.90153 41.5667 1.90153H41.6358C43.3455 1.90153 45.0724 2.0139 46.7561 2.22998C46.7993 2.23862 46.8338 2.23862 46.877 2.23862C47.3519 2.23862 47.7577 1.88425 47.8182 1.40886C47.8872 0.881619 47.5159 0.406236 46.9979 0.345733Z" fill="#B91E73"/>
<path d="M70.5443 12.0575C70.5357 11.8068 70.432 11.5648 70.2507 11.392C68.9383 10.1473 67.5222 8.97182 66.0543 7.90869C65.6312 7.59753 65.0355 7.69261 64.7332 8.11613C64.4224 8.53966 64.5174 9.13604 64.9405 9.43856C66.3393 10.4498 67.6863 11.5735 68.9383 12.7576C69.111 12.9218 69.3441 13.0169 69.5859 13.0169C69.8449 13.0169 70.0953 12.9045 70.2766 12.723C70.4579 12.5502 70.5529 12.3081 70.5443 12.0575Z" fill="#B91E73"/>
<path d="M39.9866 60.9096C30.1518 60.0625 22.4066 51.7909 22.4066 41.73C22.398 31.116 31.0325 22.4727 41.6444 22.4727C48.3362 22.4727 54.2336 25.9128 57.6788 31.116C57.6529 30.4246 57.6788 29.7331 57.7478 29.0503C53.9832 24.2792 48.1721 21.1935 41.6358 21.1935C30.3159 21.1935 21.1115 30.4073 21.1115 41.7387C21.1115 52.3959 29.2538 61.1775 39.6412 62.1802C39.7275 61.748 39.8398 61.3245 39.9866 60.9096Z" fill="#2D2D82" stroke="#2D2D82" stroke-miterlimit="10"/>
<path d="M62.1083 40.6409C61.5988 40.226 61.1326 39.7852 60.7095 39.2926C60.8131 40.0964 60.8822 40.9002 60.8822 41.73C60.8822 48.7051 57.1434 54.8073 51.5828 58.1869C51.8936 58.4894 52.1785 58.8178 52.4203 59.1722C58.2573 55.542 62.1601 49.0941 62.1601 41.7213C62.1601 41.367 62.1256 41.0039 62.1083 40.6409Z" fill="#2D2D82" stroke="#2D2D82" stroke-miterlimit="10"/>
<path d="M43.6649 53.0268H39.4771V49.5263C37.6898 49.1373 36.0233 48.3854 34.7368 47.3827L34.4 47.1234L36.5069 42.8536L37.0163 43.2858C38.3633 44.4267 40.7032 45.3948 42.1279 45.3948C42.5769 45.3948 43.1123 45.317 43.1123 44.928C43.1123 44.4527 41.9639 44.1588 40.8587 43.8649C38.5878 43.2772 35.4793 42.4733 35.4793 38.9555C35.4793 36.6304 36.9645 34.8499 39.4858 34.1412V30.7271H43.6735V33.9337C45.435 34.1585 47.1533 34.7548 48.4484 35.5932L48.8284 35.8439L46.7906 40.0964L46.3071 39.8198C44.7701 38.9469 42.7496 38.2554 41.7049 38.2554C41.4458 38.2554 41.0141 38.29 41.0141 38.532C41.0141 38.9728 42.1279 39.2839 43.2073 39.5778C45.5041 40.2088 48.6557 41.0731 48.6557 44.6947C48.6557 47.3655 46.8079 49.2065 43.6908 49.6819V53.0268H43.6649ZM40.5219 51.9896H42.6374V48.7657L43.1037 48.7138C44.4593 48.5755 47.6109 47.8927 47.6109 44.6947C47.6109 41.8683 45.1241 41.1855 42.931 40.5804C41.4113 40.1656 39.9779 39.768 39.9779 38.532C39.9779 37.901 40.4269 37.2182 41.7049 37.2182C42.9655 37.2182 44.891 37.901 46.333 38.653L47.49 36.2242C46.2639 35.5241 44.701 35.0574 43.1037 34.9104L42.6287 34.8672V31.7556H40.5133V34.9536L40.1075 35.0487C37.8193 35.5673 36.5069 36.9935 36.5069 38.9469C36.5069 41.6609 38.9504 42.2918 41.1091 42.8536C42.6633 43.2599 44.1398 43.6402 44.1398 44.9194C44.1398 45.2738 43.993 46.4233 42.1193 46.4233C40.6083 46.4233 38.4151 45.5936 36.8609 44.4699L35.7038 46.8123C36.9127 47.668 38.4583 48.2903 40.0816 48.5928L40.5047 48.6706V51.9896H40.5219Z" fill="#B91E73" stroke="#B91E73" stroke-width="0.75" stroke-miterlimit="10"/>
<path d="M73.031 157.481H74.7665L80.0163 113.582C80.1718 113.444 80.284 113.245 80.3013 113.02C80.3358 112.666 80.1545 112.329 79.8437 112.164L52.4117 97.7128C46.5834 94.6444 42.7496 89.0522 42.1538 82.7426L40.1852 61.9035C40.0125 60.0711 41.3508 58.3338 43.2936 57.8584C47.8958 56.7348 52.5585 58.9907 54.1127 63.0271L55.1747 66.8129C56.3231 70.9012 58.5768 74.6524 61.7025 77.6603C64.5778 80.4348 68.5238 81.7745 72.5388 81.3337L74.5248 81.1176C81.7087 79.8038 86.285 72.0853 86.0433 65.6893C85.672 55.7495 79.7746 47.5124 69.9226 43.1129L63.4035 39.5864C58.6286 37.0021 56.6944 31.3753 58.8962 26.4918C59.397 25.3768 60.3987 24.5211 61.6248 24.1408C62.8768 23.7605 64.2065 23.9161 65.2944 24.5903C65.3203 24.6075 68.2647 26.3189 72.1934 28.4365C72.5388 28.6267 72.9706 28.5489 73.2382 28.2637C73.5059 27.9698 73.5404 27.5376 73.3246 27.2092C71.494 24.4174 71.0537 21.2194 72.0985 18.4449C72.4266 17.5719 73.1173 16.9323 74.0499 16.6298C75.2242 16.2495 76.5884 16.4742 77.7368 17.2348C77.7886 17.2694 83.4184 20.8045 89.4798 24.2272C89.7993 24.4088 90.1878 24.3655 90.4642 24.1322C90.7405 23.8988 90.8354 23.5098 90.7146 23.1728C89.9202 21.0292 90.0324 18.7647 91.034 16.9496C91.3708 16.3359 91.9579 15.9297 92.6746 15.8086C93.5553 15.6531 94.5224 15.9556 95.2736 16.6298C95.8176 17.0879 108.519 27.8747 113.415 29.8368C117.249 32.0408 120.003 35.6883 120.979 39.8544C120.996 39.9322 121.03 40.01 121.065 40.0791C126.427 49.6645 129.017 60.9182 131.521 71.7915C131.772 72.8719 132.022 73.9523 132.273 75.0241C133.939 82.1635 135.433 89.7091 136.702 97.4535C137.479 102.199 138.205 107.143 138.844 112.156C140.786 127.316 141.943 142.693 142.712 157.473H144.439C143.662 142.624 142.505 127.178 140.553 111.94C139.906 106.909 139.189 101.939 138.403 97.1769C137.125 89.3979 135.623 81.8091 133.948 74.6351C133.697 73.5633 133.447 72.4829 133.197 71.4025C130.675 60.4428 128.068 49.1114 122.619 39.3358C121.505 34.7375 118.44 30.727 114.209 28.3069C114.175 28.2896 114.131 28.2637 114.097 28.255C109.512 26.4659 96.5083 15.4283 96.3961 15.3333C95.2563 14.3133 93.7971 13.8725 92.3724 14.1146C91.1377 14.322 90.1015 15.0567 89.5144 16.1198C88.5905 17.788 88.271 19.7586 88.5559 21.7293C83.2457 18.6696 78.6953 15.8173 78.6607 15.7914C77.0979 14.7542 75.1724 14.4516 73.5059 14.9875C72.0639 15.4543 70.9846 16.4655 70.4665 17.8398C69.534 20.3032 69.5858 23.0172 70.5529 25.5929C67.9366 24.1495 66.1665 23.1209 66.1665 23.1209C64.6728 22.1961 62.825 21.9713 61.0981 22.4986C59.3884 23.0172 58.0069 24.2186 57.2988 25.7917C54.7171 31.5136 56.9794 38.0998 62.5573 41.1163L69.1368 44.6687C78.4276 48.8175 83.9537 56.5101 84.2991 65.7584C84.5149 71.4284 80.4999 78.2739 74.2571 79.4149L72.3316 79.6223C68.8346 80.0026 65.3894 78.8358 62.8768 76.4243C59.9756 73.6325 57.8774 70.1492 56.8153 66.3548L55.7274 62.4912C53.845 57.5732 48.3189 54.8592 42.8619 56.1816C40.0902 56.8558 38.1906 59.3883 38.4496 62.0677L40.4183 82.9068C41.0659 89.7955 45.245 95.9063 51.5828 99.2427L78.2894 113.305L73.031 157.481Z" fill="#2D2D82" stroke="#2D2D82" stroke-width="1.2" stroke-miterlimit="10"/>
<path d="M66.9782 32.5508C66.1838 32.5508 65.3895 32.3088 64.7419 31.8248C62.3587 30.0442 61.5125 27.7624 62.3587 25.3855C62.4969 24.9965 62.9286 24.7977 63.3085 24.936C63.6971 25.0743 63.8957 25.4979 63.7575 25.8868C63.1358 27.6328 63.7662 29.2318 65.6312 30.6234C66.4774 31.2543 67.7726 31.1765 68.5842 30.4505L70.268 28.9379C70.5702 28.6613 71.0451 28.6872 71.3214 28.9898C71.5977 29.2923 71.5718 29.7677 71.2696 30.0442L69.5858 31.5568C68.8519 32.2224 67.9107 32.5508 66.9782 32.5508Z" fill="#2D2D82" stroke="#2D2D82" stroke-width="1.2" stroke-miterlimit="10"/>
<path d="M80.1804 25.0138C79.386 25.0138 78.5916 24.7718 77.944 24.2878C75.5609 22.5072 74.7147 20.2254 75.5609 17.8485C75.699 17.4595 76.1308 17.2607 76.5107 17.399C76.8992 17.5373 77.0978 17.9608 76.9597 18.3498C76.338 20.0957 76.9683 21.6948 78.8334 23.0863C79.6796 23.7173 80.9747 23.6395 81.7864 22.9135L83.4701 21.4009C83.7723 21.1243 84.2472 21.1502 84.5235 21.4527C84.7998 21.7553 84.7739 22.2306 84.4717 22.5072L82.788 24.0198C82.0627 24.6853 81.1215 25.0138 80.1804 25.0138Z" fill="#2D2D82" stroke="#2D2D82" stroke-width="1.2" stroke-miterlimit="10"/>
<path d="M96.0766 21.954C95.265 21.954 94.4706 21.6083 93.9525 20.96C92.6573 19.3351 92.5106 17.6151 93.5208 16.1111C93.7539 15.7654 94.2116 15.679 94.5569 15.9123C94.8937 16.1457 94.9887 16.6038 94.7555 16.9495C94.5138 17.3039 93.7885 18.3757 95.1182 20.0352C95.4722 20.476 96.1716 20.597 96.7156 20.3032L98.0626 19.5771C98.4252 19.3783 98.8742 19.5166 99.0728 19.8796C99.2714 20.2426 99.1333 20.6921 98.7706 20.8909L97.4322 21.6083C97.0005 21.8417 96.5343 21.954 96.0766 21.954Z" fill="#2D2D82" stroke="#2D2D82" stroke-width="1.2" stroke-miterlimit="10"/>
<path d="M115.53 42.5598C115.237 42.5598 114.952 42.3869 114.84 42.093C112.776 36.9416 108.519 32.7582 103.148 30.5974C100.601 29.9665 95.9817 27.771 89.4194 24.0631C89.0568 23.8643 88.9359 23.4062 89.1345 23.0431C89.3331 22.6888 89.7907 22.5591 90.1534 22.7579C96.5516 26.3708 101.188 28.5835 103.554 29.154L103.658 29.1886C109.426 31.4877 114.002 35.9908 116.23 41.5312C116.385 41.9115 116.195 42.3523 115.815 42.4993C115.72 42.5425 115.625 42.5598 115.53 42.5598Z" fill="#2D2D82" stroke="#2D2D82" stroke-width="1.2" stroke-miterlimit="10"/>
<path d="M106.809 58.5067C106.49 58.5067 106.196 58.3079 106.093 57.9881L102.82 48.152C101.024 42.7412 96.7328 38.5406 91.0599 36.6218C84.1091 35.4204 71.9344 28.1081 71.4163 27.7969C71.0537 27.5809 70.9414 27.1141 71.1573 26.7597C71.3732 26.3967 71.8394 26.2844 72.1934 26.5004C72.3143 26.5782 84.7049 34.0115 91.3622 35.1351L91.4744 35.1611C97.6395 37.2182 102.293 41.7818 104.254 47.6679L107.526 57.504C107.656 57.9016 107.44 58.3338 107.051 58.4635C106.973 58.498 106.896 58.5067 106.809 58.5067Z" fill="#2D2D82" stroke="#2D2D82" stroke-width="1.2" stroke-miterlimit="10"/>
<path d="M41.3422 73.4856C41.0055 73.4856 40.7033 73.2609 40.6169 72.9152C40.5219 72.5176 40.7637 72.1113 41.1695 72.0162L43.9671 71.3334C45.4005 70.9877 46.3416 69.7085 46.1603 68.3515C45.7717 65.4127 44.3039 63.6322 41.7912 63.0531C41.394 62.958 41.1436 62.5605 41.23 62.1542C41.325 61.748 41.7135 61.4973 42.128 61.5924C46.0912 62.5086 47.3173 65.6634 47.6454 68.1527C47.9217 70.2617 46.497 72.2496 44.3211 72.7769L41.5235 73.4683C41.4631 73.477 41.4027 73.4856 41.3422 73.4856Z" fill="#2D2D82" stroke="#2D2D82" stroke-width="1.2" stroke-miterlimit="10"/>
</g>
<defs>
<clipPath id="clip0_1_1322">
<rect width="145" height="158" fill="white"/>
</clipPath>
</defs>
</svg>
