<svg width="201" height="47" viewBox="0 0 201 47" fill="none" xmlns="http://www.w3.org/2000/svg">
<path d="M197.46 46.3709C196.672 46.3709 195.891 46.0766 195.277 45.488C192.787 43.0707 189.872 40.31 186.755 38.0608C186.72 38.0328 186.678 38.0048 186.643 37.9768L180.102 32.8058C180.074 32.7847 180.046 32.7637 180.011 32.7427L168.114 25.1403C167.054 24.5518 165.924 23.9842 164.92 23.4797L156.042 18.9884C154.682 18.3017 153.887 16.7602 154.299 15.2888C154.856 13.3059 157.011 12.423 158.741 13.2989L167.73 17.8463C168.811 18.3858 170.039 19.0024 171.238 19.675C171.294 19.7101 171.35 19.7381 171.399 19.7731L183.401 27.4456C183.617 27.5857 183.791 27.7118 183.965 27.852L190.458 32.9809C193.847 35.4263 196.895 38.3131 199.503 40.8355C200.821 42.1108 200.919 44.3039 199.566 45.5441C198.987 46.0976 198.22 46.3709 197.46 46.3709ZM5.49684 39.0488C4.23457 40.1208 2.37254 40.0297 1.24277 38.8246L1.13816 38.7055C-0.0334491 37.4162 0.0781331 35.3913 1.40317 34.2632C5.75487 30.5636 10.3646 27.4316 14.8418 24.3906L18.0359 22.2115C18.1963 22.0994 18.3985 21.9733 18.6077 21.8542L29.3963 15.9124C30.031 15.5621 30.6726 15.2047 31.349 14.8754C31.3978 14.8544 31.4397 14.8334 31.4885 14.8123L39.4875 11.386C40.0943 11.1408 40.6592 10.9166 41.2171 10.6923C42.6328 10.1318 44.3135 10.5732 45.1294 11.8625C46.2243 13.6002 45.4432 15.8073 43.637 16.515C43.0582 16.7392 42.4793 16.9704 41.9005 17.2087L34.027 20.5789C33.5109 20.8312 33.0018 21.1184 32.43 21.4337L21.5926 27.4035L18.3567 29.6107C14.0329 32.5605 9.58354 35.5804 5.49684 39.0488ZM124.297 8.91263C124.109 8.91263 123.913 8.89861 123.718 8.85657C114.631 7.16794 105.335 6.3061 96.0945 6.3061C92.775 6.3061 89.4066 6.41821 86.087 6.63542C82.9418 6.84563 79.7268 7.18896 76.5328 7.6444C75.0265 7.86161 73.4922 7.06284 72.9831 5.61944C72.2997 3.67155 73.5619 1.70265 75.4867 1.42238C78.89 0.931902 82.3142 0.567549 85.6686 0.343332C89.1276 0.119115 92.6355 0 96.0945 0C105.67 0 115.301 0.882854 124.722 2.63455C126.389 2.94285 127.63 4.49835 127.4 6.18699C127.184 7.78453 125.824 8.91263 124.297 8.91263Z" fill="#2D2D8C"/>
</svg>
