<svg width="126" height="115" viewBox="0 0 126 115" fill="none" xmlns="http://www.w3.org/2000/svg">
<g clip-path="url(#clip0_1_2145)">
<path d="M25.9207 13.3772H3.92011C3.4018 13.3772 2.98413 12.9594 2.98413 12.4411C2.98413 5.85813 8.33834 0.503204 14.9204 0.503204H15.1972C15.2424 0.503204 15.3079 0.508237 15.3783 0.518303C15.7054 0.518303 16.0375 0.553533 16.3546 0.598828C16.2992 0.588762 16.4451 0.588762 16.6011 0.623992C16.7974 0.639091 17.0842 0.689419 17.361 0.754845C17.3761 0.759878 17.3912 0.759878 17.4063 0.764911C17.5321 0.785042 17.6679 0.815239 17.8088 0.855502C17.8743 0.865568 17.9447 0.880666 18.0101 0.910863C18.2466 0.966224 18.4781 1.03668 18.7096 1.11721C19.0618 1.238 19.4292 1.37388 19.7663 1.52487C20.1136 1.67585 20.4608 1.852 20.803 2.05331C21.0999 2.22443 21.4119 2.41568 21.7088 2.60692C21.744 2.63209 21.7792 2.65725 21.8144 2.68745C22.0962 2.88876 22.373 3.10517 22.6447 3.33668C22.8662 3.51787 23.1027 3.73931 23.3291 3.96075C23.4549 4.06644 23.5354 4.17717 23.5908 4.24762C23.7619 4.40867 24.0135 4.67542 24.2299 4.95725C25.1658 6.11983 25.8754 7.4485 26.3232 8.88285C26.4641 9.32071 26.5698 9.7787 26.6604 10.2317C26.7258 10.5638 26.7711 10.891 26.8013 11.2332C26.8466 11.6308 26.8667 12.0284 26.8667 12.4411C26.8566 12.9594 26.439 13.3772 25.9207 13.3772ZM25.9207 12.4411H25.9358H25.9207ZM4.89635 11.505H24.9444C24.9444 11.4798 24.9394 11.4597 24.9394 11.4345C24.9344 11.3993 24.9344 11.364 24.9344 11.3288V11.3137C24.9142 11.1174 24.879 10.8557 24.8237 10.589C24.7482 10.2015 24.6576 9.81896 24.5419 9.4415C24.1594 8.22859 23.5606 7.10627 22.7655 6.1148C22.5844 5.87826 22.3831 5.67191 22.1868 5.4706L22.846 4.80627L22.0761 5.33471C21.8648 5.12837 21.6635 4.94215 21.4572 4.77607C21.2005 4.55966 20.9489 4.36338 20.6923 4.1822C20.6621 4.16207 20.6319 4.1369 20.6067 4.11174C20.4205 3.99598 20.1438 3.82487 19.867 3.66382C19.5802 3.4927 19.3034 3.35682 19.0166 3.23099C18.7247 3.10014 18.4177 2.98439 18.1108 2.8787C17.8994 2.8183 17.7132 2.76294 17.522 2.71765C17.4465 2.70758 17.371 2.68745 17.2956 2.65725C17.2503 2.63712 17.1446 2.61699 17.049 2.60189C17.0138 2.59686 16.9785 2.58679 16.9433 2.57673C16.9383 2.57673 16.9332 2.57673 16.9282 2.57169C16.7219 2.52137 16.5105 2.49117 16.2942 2.46601C16.2489 2.46601 16.1231 2.45594 16.0778 2.45091C15.7859 2.40561 15.479 2.43078 15.1871 2.37541H14.9305C9.68695 2.37541 5.36937 6.39161 4.89635 11.505Z" fill="#F9A01B"/>
<path d="M25.9207 13.8805H3.92015C3.12507 13.8805 2.48096 13.2363 2.48096 12.4411C2.48096 5.5814 8.06161 0 14.9204 0H15.1972C15.2475 0 15.328 0.00503282 15.4086 0.0150985C15.7054 0.0201313 16.0174 0.0452954 16.3395 0.0905908C16.4301 0.085558 16.5408 0.100656 16.6767 0.125821C16.9132 0.150985 17.2151 0.201313 17.4768 0.26674C17.6227 0.296937 17.7686 0.322101 17.9196 0.367396C18.0001 0.382495 18.0806 0.402626 18.1561 0.432823C18.3926 0.493217 18.6241 0.563676 18.8707 0.649234C19.2783 0.78512 19.6507 0.931072 19.9677 1.07702C20.3602 1.24814 20.7175 1.42932 21.0496 1.63063C21.3515 1.80175 21.6685 2.00306 21.9705 2.19934C22.0359 2.22451 22.0862 2.26477 22.1416 2.31007C22.3982 2.49125 22.68 2.70766 22.9668 2.95427C23.1681 3.11532 23.3946 3.3267 23.6764 3.6035C23.7871 3.69912 23.8827 3.80985 23.9632 3.91554C24.1343 4.08162 24.3909 4.34836 24.6224 4.65536C25.5936 5.86324 26.3283 7.2372 26.8013 8.73698C26.9322 9.14464 27.0429 9.60262 27.1486 10.1411C27.219 10.4934 27.2643 10.8357 27.2945 11.198L27.2995 11.2584C27.3398 11.6309 27.3599 12.0184 27.3599 12.4512C27.3599 13.2363 26.7158 13.8805 25.9207 13.8805ZM14.9204 1.00656C8.61515 1.00656 3.48739 6.13501 3.48739 12.4411C3.48739 12.6777 3.68364 12.874 3.92015 12.874H25.9257C25.9308 12.874 25.9358 12.874 25.9408 12.874L25.9257 11.9379H25.9408V12.874C26.1723 12.8639 26.3585 12.6777 26.3585 12.4411C26.3585 12.0234 26.3384 11.646 26.2981 11.2937L26.2579 10.9414H26.2629C26.2377 10.735 26.2025 10.5337 26.1673 10.3324C26.0666 9.8291 25.961 9.40634 25.8452 9.03895C25.4125 7.65996 24.7382 6.39672 23.8374 5.27943C23.616 4.99759 23.3845 4.75098 23.2436 4.62013L23.1832 4.54967C23.148 4.49934 23.0876 4.42385 23.0021 4.34836C22.7203 4.07155 22.5089 3.88031 22.3278 3.73435C22.051 3.50284 21.7893 3.2965 21.5176 3.10525C21.4622 3.05996 21.4471 3.04989 21.432 3.03479C21.1452 2.84858 20.8433 2.66236 20.5514 2.49125C20.2444 2.31007 19.9224 2.14398 19.5651 1.98796C19.2732 1.85711 18.9311 1.72626 18.5486 1.5954C18.3171 1.51488 18.1058 1.44945 17.8894 1.39912L17.819 1.37899C17.7938 1.36893 17.7636 1.36389 17.7334 1.35886L17.663 1.33873C17.5422 1.3035 17.4214 1.27834 17.3157 1.25821L17.2302 1.23807C16.9685 1.17265 16.7018 1.13742 16.5559 1.12232L16.4905 1.11225C16.4401 1.10219 16.3898 1.09212 16.3647 1.09212L16.3798 0.593873H16.3697L16.2841 1.09212C15.9671 1.04179 15.6652 1.01663 15.3834 1.01663L15.328 1.0116C15.2777 1.0116 15.2324 1.00656 15.2022 1.00656H14.9204ZM25.4678 12.0083H4.34285L4.39317 11.4597C4.89639 6.08468 9.5159 1.87221 14.9204 1.87221L15.2677 1.88228C15.3985 1.90744 15.5344 1.91247 15.6702 1.91751C15.8313 1.92254 15.9923 1.9326 16.1483 1.95777C16.1785 1.9628 16.254 1.96783 16.2892 1.96783L16.3445 1.97287C16.6163 2.00306 16.8377 2.04333 17.039 2.08862C17.0994 2.10372 17.1195 2.10875 17.1346 2.11379C17.3006 2.14398 17.3963 2.16411 17.4818 2.19934C17.512 2.21444 17.5472 2.21947 17.5875 2.22954C17.834 2.2849 18.0353 2.34026 18.2618 2.42079C18.6442 2.55164 18.9411 2.66236 19.2129 2.78818C19.5399 2.9291 19.8268 3.07505 20.1136 3.24617C20.3652 3.39212 20.6219 3.54814 20.808 3.66389L20.9339 3.75449C21.2408 3.97593 21.5025 4.17724 21.7742 4.40875C21.89 4.49934 22.0057 4.60503 22.1164 4.70569L22.5542 4.40372L23.1983 5.17374L22.8813 5.49081C22.9769 5.5965 23.0675 5.70219 23.1581 5.81794C23.9884 6.8547 24.6174 8.03238 25.02 9.30569C25.1307 9.65799 25.2263 10.0354 25.3169 10.5035C25.3672 10.7702 25.4074 11.047 25.4326 11.2735V11.3239C25.4326 11.354 25.4326 11.3691 25.4376 11.3893C25.4427 11.4195 25.4477 11.4547 25.4477 11.495L25.4678 12.0083ZM5.46502 11.0017H24.3809C24.3658 10.9011 24.3456 10.7954 24.3255 10.6847C24.24 10.2569 24.1544 9.90963 24.0538 9.59256C23.6915 8.43501 23.1228 7.37309 22.363 6.42691C22.1919 6.20547 22.0007 6.00919 21.8195 5.82298L21.4673 5.47068L21.4723 5.46564C21.3566 5.35996 21.2408 5.25427 21.1301 5.16871C20.8735 4.9523 20.6319 4.76608 20.3904 4.58993C20.3602 4.5698 20.33 4.54464 20.2948 4.51947L20.2797 4.51444C20.0985 4.40372 19.8519 4.25274 19.6054 4.10678C19.3487 3.9558 19.0971 3.82998 18.8053 3.69912C18.5587 3.5884 18.297 3.48775 17.9397 3.36193C17.7435 3.29147 17.5774 3.24617 17.4113 3.20591C17.3308 3.19584 17.2151 3.16565 17.1044 3.12035C17.0893 3.12035 17.0289 3.11028 16.9735 3.10022C16.9132 3.09015 16.8628 3.08009 16.8176 3.06499L16.7974 3.05996C16.6465 3.02473 16.4703 2.99453 16.2489 2.96937C16.1734 2.96433 16.0476 2.95427 15.9923 2.94923C15.8715 2.9291 15.7507 2.92407 15.6249 2.91904C15.4689 2.914 15.3029 2.90394 15.1318 2.87877H14.9154C10.2154 2.87877 6.16952 6.40175 5.46502 11.0017Z" fill="#F9A01B"/>
<path d="M104.448 114.497C104.236 114.497 104.025 114.426 103.854 114.285L67.1945 84.3602C67.1593 84.33 67.114 84.2847 67.0788 84.2495C66.9077 84.0582 66.8171 83.8016 66.8423 83.5449C66.8624 83.2882 66.9882 83.0466 67.1945 82.8856L103.869 53.7506C104.151 53.5292 104.533 53.4839 104.855 53.6399C105.177 53.7959 105.384 54.123 105.384 54.4804V113.561C105.384 113.923 105.177 114.25 104.85 114.406C104.719 114.467 104.583 114.497 104.448 114.497ZM69.2577 83.6355L103.512 111.588V56.423L69.2577 83.6355Z" fill="#F9A01B"/>
<path d="M104.447 115C104.115 115 103.793 114.884 103.537 114.673L66.8774 84.7477C66.8271 84.7024 66.7567 84.637 66.7114 84.5917C66.4396 84.2947 66.3088 83.8971 66.339 83.5046C66.3692 83.112 66.5654 82.7446 66.8774 82.493L103.552 53.358C103.99 53.0107 104.568 52.9453 105.071 53.1869C105.565 53.4234 105.887 53.9317 105.887 54.4803V113.561C105.887 114.114 105.565 114.623 105.066 114.859C104.865 114.95 104.659 115 104.447 115ZM104.442 54.0475C104.347 54.0475 104.256 54.0777 104.176 54.1431L67.5014 83.2781C67.4058 83.3536 67.3504 83.4643 67.3404 83.5801C67.3303 83.7009 67.3706 83.8217 67.4511 83.9072C67.4662 83.9223 67.4913 83.9525 67.5165 83.9676L104.171 113.888C104.296 113.993 104.483 114.014 104.629 113.943C104.78 113.873 104.875 113.717 104.875 113.551V54.4803C104.875 54.3142 104.78 54.1632 104.629 54.0928C104.573 54.0626 104.508 54.0475 104.442 54.0475ZM104.015 112.65L68.4575 83.6304L104.015 55.3812V112.65ZM70.0577 83.6405L103.003 110.531V57.4648L70.0577 83.6405Z" fill="#F9A01B"/>
<path d="M83.725 71.8887C83.5892 71.8887 83.4483 71.8585 83.3174 71.7981C82.9954 71.6421 82.7891 71.315 82.7891 70.9576V54.4852C82.7891 53.9668 83.2067 53.5491 83.725 53.5491H104.447C104.845 53.5491 105.197 53.8007 105.328 54.1782C105.459 54.5557 105.338 54.9734 105.026 55.22L84.3037 71.6924C84.1377 71.8233 83.9314 71.8887 83.725 71.8887ZM84.661 55.4163V69.015L101.765 55.4163H84.661Z" fill="#F9A01B"/>
<path d="M83.7251 72.3921C83.5087 72.3921 83.2923 72.3417 83.1011 72.2511C82.6079 72.0146 82.2859 71.5063 82.2859 70.9577V54.4853C82.2859 53.6901 82.93 53.0459 83.7251 53.0459H104.447C105.056 53.0459 105.605 53.4334 105.806 54.0122C106.007 54.591 105.821 55.2301 105.343 55.6126L84.6208 72.0851C84.3642 72.2813 84.0471 72.3921 83.7251 72.3921ZM83.7251 54.0474C83.4886 54.0474 83.2923 54.2437 83.2923 54.4803V70.9527C83.2923 71.1188 83.3879 71.2697 83.5389 71.3402C83.6848 71.4107 83.866 71.3905 83.9968 71.2899L104.719 54.8175C104.865 54.7017 104.921 54.5104 104.86 54.3393C104.8 54.1632 104.634 54.0474 104.453 54.0474H83.7251ZM84.1578 70.0568V54.9131H103.21L84.1578 70.0568ZM85.1643 55.9196V67.9732L100.326 55.9196H85.1643Z" fill="#F9A01B"/>
<path d="M104.447 55.4162H83.725C83.2067 55.4162 82.7891 54.9985 82.7891 54.4801V38.2593C82.7891 37.7409 83.2067 37.3232 83.725 37.3232H84.032C84.2434 37.3232 84.4497 37.3937 84.6157 37.5245L105.031 53.7453C105.343 53.9919 105.464 54.4096 105.333 54.7871C105.197 55.1646 104.845 55.4162 104.447 55.4162ZM84.661 53.544H101.765L84.661 39.9503V53.544Z" fill="#F9A01B"/>
<path d="M104.447 55.9196H83.7251C82.93 55.9196 82.2859 55.2754 82.2859 54.4802V38.2594C82.2859 37.4642 82.93 36.82 83.7251 36.82H84.032C84.3541 36.82 84.6711 36.9307 84.9278 37.132L105.343 53.3528C105.821 53.7353 106.007 54.3745 105.806 54.9533C105.605 55.532 105.056 55.9196 104.447 55.9196ZM83.7251 37.8266C83.4886 37.8266 83.2923 38.0228 83.2923 38.2594V54.4802C83.2923 54.7167 83.4886 54.913 83.7251 54.913H104.447C104.634 54.913 104.795 54.7972 104.855 54.6261C104.915 54.45 104.86 54.2587 104.719 54.143L84.3038 37.9222C84.2283 37.8618 84.1327 37.8266 84.0371 37.8266H83.7251ZM103.205 54.0474H84.1528V38.9086L103.205 54.0474ZM85.1643 53.0408H100.321L85.1643 40.9922V53.0408Z" fill="#F9A01B"/>
<path d="M104.447 114.497L1.4997 114.411C0.981389 114.411 0.563721 113.993 0.563721 113.475C0.563721 113.198 0.689524 112.851 0.900875 112.67L37.2078 82.5333C37.55 82.2514 38.0381 82.2464 38.3854 82.5182L53.0541 94.1289L67.1894 82.8856C67.5769 82.5786 68.1304 82.6239 68.4625 82.9913L105.036 112.836C105.343 113.088 105.459 113.5 105.328 113.873C105.192 114.245 104.84 114.497 104.447 114.497ZM3.98558 112.544L101.816 112.625L67.758 84.8232L53.6328 96.0565C53.2956 96.3282 52.8125 96.3282 52.4703 96.0565L37.8167 84.4558L3.98558 112.544Z" fill="#F9A01B"/>
<path d="M104.447 115L1.49974 114.914C0.709694 114.914 0.0605469 114.27 0.0605469 113.475C0.0605469 113.098 0.221576 112.584 0.578858 112.282L36.8858 82.1458C37.4041 81.7129 38.169 81.7029 38.6974 82.1256L53.0491 93.4897L66.8724 82.493C67.4561 82.035 68.2965 82.0904 68.8047 82.6239L105.353 112.448C105.826 112.836 106.002 113.475 105.796 114.049C105.595 114.613 105.051 115 104.447 115ZM37.8067 82.8202C37.7061 82.8202 37.6104 82.8554 37.5299 82.9208L1.22297 113.057C1.14749 113.118 1.06698 113.309 1.06698 113.475C1.06698 113.712 1.2582 113.908 1.49974 113.908L104.447 113.993V114.497V113.993C104.629 113.993 104.795 113.878 104.855 113.707C104.915 113.535 104.86 113.344 104.719 113.228L68.0902 83.3335C67.9392 83.1674 67.6775 83.1473 67.5014 83.2882L53.0541 94.7782L38.0734 82.9208C37.9979 82.8504 37.9023 82.8202 37.8067 82.8202ZM103.23 113.128L2.59675 113.042L37.8168 83.8066L52.7924 95.6589C52.9484 95.7847 53.1699 95.7847 53.3258 95.6589L67.7681 84.169L103.23 113.128ZM5.37953 112.041L100.402 112.116L67.7581 85.4674L53.9498 96.4491C53.4265 96.8668 52.6918 96.8668 52.1634 96.4541L37.8319 85.1051L5.37953 112.041Z" fill="#F9A01B"/>
<path d="M1.4997 114.326C1.36383 114.326 1.22796 114.295 1.10216 114.235C0.775071 114.079 0.563721 113.752 0.563721 113.389V54.4803C0.563721 54.123 0.770039 53.7958 1.0921 53.6398C1.41415 53.4838 1.80163 53.5241 2.0784 53.7505L26.4994 73.0967L38.3853 82.5232C38.6068 82.6993 38.7376 82.9661 38.7376 83.2479C38.7426 83.5298 38.6168 83.7965 38.4004 83.9777L2.09853 114.109C1.92743 114.255 1.71105 114.326 1.4997 114.326ZM2.43568 56.4179V111.402L36.3222 83.2731L2.43568 56.4179Z" fill="#F9A01B"/>
<path d="M1.49974 114.829C1.28839 114.829 1.07704 114.784 0.885819 114.693C0.382604 114.456 0.0605469 113.948 0.0605469 113.39V54.4803C0.0605469 53.9317 0.377572 53.4234 0.870723 53.1869C1.36891 52.9503 1.9627 53.0158 2.39043 53.353L26.8165 72.6991L38.7024 82.1256C39.0396 82.3924 39.2409 82.8 39.2459 83.2328C39.2509 83.6707 39.0597 84.0784 38.7276 84.3602L2.42063 114.497C2.15895 114.713 1.8369 114.829 1.49974 114.829ZM1.49974 54.0525C1.43432 54.0525 1.36891 54.0676 1.30852 54.0978C1.16259 54.1683 1.06698 54.3193 1.06698 54.4854V113.39C1.06698 113.556 1.16259 113.712 1.31858 113.782C1.46452 113.853 1.65071 113.827 1.77651 113.722L38.0835 83.5851C38.1841 83.5046 38.2395 83.3738 38.2395 83.2479C38.2395 83.1171 38.1791 82.9963 38.0734 82.9158L26.3233 73.595H25.9963V73.3333L1.76645 54.1431C1.69096 54.0827 1.59535 54.0525 1.49974 54.0525ZM1.93251 112.469V55.3762L37.1223 83.263L1.93251 112.469ZM2.93894 57.4547V110.325L35.5271 83.2781L2.93894 57.4547Z" fill="#F9A01B"/>
<path d="M25.9207 74.7624C25.7144 74.7624 25.5081 74.692 25.342 74.5611L0.920964 55.2149C0.608971 54.9683 0.488199 54.5506 0.619035 54.1731C0.749871 53.7957 1.10715 53.544 1.50469 53.544H25.9257C26.444 53.544 26.8617 53.9618 26.8617 54.4801V73.8263C26.8617 74.1836 26.6554 74.5108 26.3333 74.6668C26.2025 74.7322 26.0616 74.7624 25.9207 74.7624ZM4.18683 55.4162L24.9847 71.8887V55.4162H4.18683Z" fill="#F9A01B"/>
<path d="M25.9208 75.2658C25.5987 75.2658 25.2817 75.1551 25.0301 74.9538L0.609056 55.6126C0.131002 55.2301 -0.0602201 54.591 0.141066 54.0122C0.342352 53.4334 0.885824 53.0459 1.49975 53.0459H25.9208C26.7158 53.0459 27.36 53.6901 27.36 54.4853V73.8315C27.36 74.38 27.0429 74.8884 26.5498 75.1249C26.3535 75.2155 26.1422 75.2658 25.9208 75.2658ZM1.49975 54.0474C1.31356 54.0474 1.15253 54.1632 1.09214 54.3393C1.03176 54.5155 1.08711 54.7067 1.23304 54.8225L25.6541 74.1687C25.7799 74.2693 25.961 74.2894 26.112 74.219C26.2579 74.1485 26.3535 73.9925 26.3535 73.8315V54.4853C26.3535 54.2487 26.1573 54.0525 25.9208 54.0525H1.49975V54.0474ZM25.488 72.9306L2.74269 54.9131H25.488V72.9306ZM5.63617 55.9196L24.4866 70.852V55.9196H5.63617Z" fill="#F9A01B"/>
<path d="M25.9208 55.4164H1.49981C1.10227 55.4164 0.744988 55.1648 0.614152 54.7873C0.483316 54.4099 0.604088 53.9921 0.916081 53.7455L25.2667 34.4547C25.8353 34.0018 26.8518 34.4598 26.8518 35.1895V54.4803C26.8568 54.9987 26.4391 55.4164 25.9208 55.4164ZM4.18698 53.5442H24.9849V37.0718L4.18698 53.5442Z" fill="#F9A01B"/>
<path d="M25.9208 55.9197H1.4998C0.885881 55.9197 0.342409 55.5322 0.141123 54.9534C-0.0601635 54.3746 0.126026 53.7304 0.609113 53.353L24.9597 34.0621C25.3824 33.7249 25.9812 33.6796 26.5197 33.9363C27.038 34.188 27.3651 34.6661 27.3651 35.1895V54.4803C27.36 55.2755 26.7159 55.9197 25.9208 55.9197ZM25.8101 34.7818C25.7246 34.7818 25.6491 34.802 25.5837 34.8523L1.2331 54.1431C1.08717 54.2589 1.03181 54.4501 1.0922 54.6263C1.15258 54.7974 1.31865 54.9182 1.4998 54.9182H25.9208C26.1573 54.9182 26.3536 54.7219 26.3536 54.4853V35.1895C26.3536 35.0335 26.2127 34.9077 26.0819 34.8422C26.0013 34.807 25.9057 34.7818 25.8101 34.7818ZM25.4881 54.0475H2.74274L25.4931 36.0249V54.0475H25.4881ZM5.6312 53.0409H24.4816V38.1085L5.6312 53.0409Z" fill="#F9A01B"/>
<path d="M25.9208 74.7674C25.4025 74.7674 24.9848 74.3547 24.9848 73.8414V12.4409C24.9848 12.0987 24.9697 11.7665 24.9345 11.4344C24.8741 10.921 25.2414 10.458 25.7547 10.3976C26.268 10.3423 26.731 10.7046 26.7913 11.218C26.8366 11.6206 26.8568 12.0232 26.8568 12.4409V73.8263C26.8568 74.3396 26.4391 74.7674 25.9208 74.7674Z" fill="#F9A01B"/>
<path d="M25.9207 75.2708C25.1256 75.2708 24.4815 74.6266 24.4815 73.8415V12.4411C24.4815 12.0737 24.4664 11.7717 24.4362 11.4949C24.3457 10.7047 24.9143 9.99007 25.6993 9.89948C26.4944 9.81392 27.2039 10.3826 27.2945 11.1627C27.3398 11.5603 27.3599 11.978 27.3599 12.4411V73.8264C27.3599 74.6216 26.7158 75.2708 25.9207 75.2708ZM25.8603 10.896C25.8452 10.896 25.8301 10.896 25.81 10.901C25.5785 10.9262 25.4074 11.1426 25.4326 11.3791C25.4678 11.7012 25.488 12.0384 25.488 12.4411V73.8415C25.488 74.078 25.6792 74.2643 25.9207 74.2643C26.1572 74.2643 26.3535 74.068 26.3535 73.8264V12.4411C26.3535 12.0133 26.3334 11.6358 26.2931 11.2785C26.2679 11.0621 26.0818 10.896 25.8603 10.896Z" fill="#F9A01B"/>
<path d="M25.8655 12.2502C25.3875 12.2502 24.9749 11.8828 24.9346 11.3946C24.9094 11.1178 24.8742 10.8561 24.8239 10.5894C24.7232 10.0811 25.0554 9.59289 25.5636 9.49224C26.0769 9.39661 26.565 9.72375 26.6606 10.2321C26.726 10.5592 26.7713 10.8863 26.8015 11.2286C26.8468 11.7419 26.4644 12.1949 25.9511 12.2402C25.9209 12.2502 25.8907 12.2502 25.8655 12.2502Z" fill="#F9A01B"/>
<path d="M25.8654 12.7533C25.1257 12.7533 24.4967 12.1745 24.4313 11.4397C24.4112 11.1931 24.3759 10.9465 24.3256 10.6848C24.2501 10.3124 24.3306 9.92484 24.542 9.60777C24.7584 9.29071 25.0855 9.07429 25.4629 8.9988C26.2429 8.84782 27.0027 9.36117 27.1486 10.1362C27.2141 10.4835 27.2644 10.8257 27.2946 11.1881C27.3298 11.5706 27.209 11.943 26.9625 12.2399C26.7159 12.5369 26.3687 12.713 25.9812 12.7483C25.956 12.7533 25.9057 12.7533 25.8654 12.7533ZM25.7396 9.9802C25.7095 9.9802 25.6843 9.98524 25.6541 9.99027C25.5434 10.0104 25.4427 10.0758 25.3824 10.1714C25.3169 10.2671 25.2968 10.3828 25.3169 10.4936C25.3723 10.7905 25.4126 11.0673 25.4377 11.3491C25.4578 11.5706 25.644 11.7417 25.8654 11.7417H25.8906C26.0164 11.7316 26.1221 11.6763 26.1976 11.5907C26.2731 11.5051 26.3083 11.3894 26.2982 11.2736C26.268 10.9515 26.2278 10.6395 26.1674 10.3275C26.1221 10.1262 25.946 9.9802 25.7396 9.9802Z" fill="#F9A01B"/>
<path d="M25.4275 10.101C25.03 10.101 24.6576 9.84434 24.5368 9.44675C24.1544 8.23384 23.5606 7.11655 22.7605 6.12005C22.5793 5.88351 22.378 5.67717 22.1818 5.47585C21.8194 5.10846 21.8194 4.51458 22.1868 4.15222C22.5541 3.78986 23.1479 3.78986 23.5102 4.15725C23.7619 4.40889 24.0135 4.67563 24.2298 4.95747C25.1658 6.12005 25.8754 7.44872 26.3232 8.88307C26.4792 9.37629 26.2024 9.8997 25.7093 10.0557C25.6137 10.0859 25.5181 10.101 25.4275 10.101Z" fill="#F9A01B"/>
<path d="M25.4276 10.6043C24.7935 10.6043 24.245 10.1967 24.0538 9.59777C23.6915 8.44525 23.1229 7.38333 22.363 6.43716C22.1919 6.21571 22.0007 6.01943 21.8195 5.83322C21.5478 5.56145 21.4019 5.19908 21.4019 4.81659C21.4019 4.43409 21.5528 4.07173 21.8246 3.79996C22.0963 3.52818 22.4536 3.38223 22.836 3.38223H22.8411C23.2235 3.38223 23.5858 3.53322 23.8575 3.80499C24.1746 4.12206 24.4161 4.39383 24.6174 4.65554C25.5886 5.86341 26.3233 7.23738 26.7963 8.73716C27.0328 9.49711 26.6101 10.3024 25.8553 10.5439C25.7194 10.5792 25.5735 10.6043 25.4276 10.6043ZM22.8411 4.38376C22.7253 4.38376 22.6196 4.42906 22.5341 4.50959C22.4536 4.59011 22.4083 4.70083 22.4083 4.81659C22.4083 4.93234 22.4536 5.04306 22.5341 5.12359C22.7404 5.32994 22.9568 5.55641 23.153 5.81309C23.9884 6.84985 24.6124 8.02753 25.0149 9.2958C25.0854 9.51724 25.332 9.6481 25.5534 9.57764C25.7849 9.50718 25.9107 9.26057 25.8402 9.03409C25.4074 7.6551 24.7331 6.39186 23.8324 5.27457C23.6512 5.03803 23.4348 4.80149 23.148 4.50959C23.0675 4.42906 22.9467 4.3737 22.8411 4.38376Z" fill="#F9A01B"/>
<path d="M22.7003 5.59663C22.4638 5.59663 22.2222 5.50604 22.0411 5.32485C21.8498 5.13864 21.6485 4.94739 21.4473 4.78131C21.1906 4.5649 20.939 4.36862 20.6824 4.18744C20.2597 3.8905 20.159 3.30669 20.461 2.88394C20.7629 2.46118 21.3416 2.36052 21.7643 2.66249C22.0662 2.87387 22.353 3.10035 22.6399 3.34192C22.8764 3.53317 23.123 3.76468 23.3595 4.00122C23.7268 4.36358 23.7268 4.95746 23.3645 5.32485C23.1834 5.50604 22.9418 5.59663 22.7003 5.59663Z" fill="#F9A01B"/>
<path d="M22.7003 6.09973C22.3178 6.09973 21.9605 5.95378 21.6888 5.68201C21.5378 5.53102 21.3365 5.33474 21.1353 5.17369C20.8786 4.95728 20.6371 4.77107 20.3955 4.59492C20.0835 4.37347 19.8722 4.04131 19.8068 3.66385C19.7413 3.28638 19.8269 2.90389 20.0533 2.59185C20.5113 1.94765 21.412 1.79164 22.0612 2.24962C22.3581 2.461 22.66 2.69251 22.972 2.95422C23.1884 3.13037 23.4349 3.35684 23.7218 3.63868C23.9935 3.91045 24.1445 4.27282 24.1445 4.65531C24.1445 5.03781 23.9985 5.40017 23.7268 5.67194C23.45 5.94875 23.0877 6.09973 22.7003 6.09973ZM21.2258 2.98945C21.09 2.98945 20.9541 3.05487 20.8736 3.17063C20.8082 3.26625 20.783 3.38201 20.7981 3.49273C20.8182 3.60849 20.8786 3.70411 20.9742 3.77457C21.2409 3.96582 21.5026 4.16713 21.7743 4.39361C22.0058 4.57982 22.2272 4.79623 22.3983 4.96231C22.5644 5.1284 22.8462 5.12336 23.0072 4.96231C23.0877 4.88179 23.133 4.77107 23.133 4.65531C23.133 4.53956 23.0877 4.43387 23.0072 4.34831C22.7506 4.09164 22.5191 3.88026 22.3279 3.72424C22.031 3.4726 21.7542 3.26122 21.4774 3.06494C21.3969 3.01461 21.3114 2.98945 21.2258 2.98945Z" fill="#F9A01B"/>
<path d="M21.1904 4.33348C21.0143 4.33348 20.8381 4.28315 20.6821 4.18249C20.4154 4.01138 20.1336 3.83523 19.8518 3.67418C19.565 3.50306 19.2882 3.36718 19.0014 3.24136C18.7095 3.1105 18.4026 2.99475 18.0956 2.88906C17.8843 2.81357 17.6779 2.75317 17.4666 2.70788C16.9634 2.59715 16.6413 2.0989 16.752 1.59562C16.8627 1.09234 17.3659 0.775272 17.8641 0.880962C18.156 0.946388 18.4328 1.02691 18.7095 1.12254C19.0618 1.24332 19.4291 1.37921 19.7663 1.5302C20.1135 1.68118 20.4607 1.85733 20.8029 2.05864C21.0998 2.22976 21.4118 2.42101 21.7087 2.61225C22.1415 2.89409 22.2622 3.47287 21.9804 3.90569C21.7993 4.18249 21.4973 4.33348 21.1904 4.33348Z" fill="#F9A01B"/>
<path d="M21.1905 4.8367C20.9137 4.8367 20.642 4.75617 20.4055 4.60519C20.1438 4.43407 19.872 4.26799 19.6003 4.10694C19.3487 3.95595 19.0921 3.83013 18.8002 3.69928C18.5536 3.58856 18.292 3.4879 17.9347 3.36208C17.7233 3.28659 17.5422 3.23626 17.356 3.196C16.9786 3.11547 16.6615 2.88899 16.4502 2.56689C16.2439 2.24479 16.1734 1.85727 16.2539 1.48484C16.425 0.714816 17.1849 0.221599 17.9649 0.382649C18.2668 0.448076 18.5637 0.533634 18.8707 0.644356C19.2783 0.780242 19.6506 0.926194 19.9677 1.06711C20.3602 1.23823 20.7175 1.41941 21.0496 1.62072C21.3515 1.79184 21.6685 1.99315 21.9705 2.18943C22.6347 2.62226 22.8259 3.51306 22.3932 4.1774C22.1365 4.59009 21.6836 4.8367 21.1905 4.8367ZM17.668 1.35902C17.4667 1.35902 17.2855 1.49994 17.2402 1.70125C17.2151 1.81197 17.2352 1.92773 17.3006 2.02335C17.366 2.11897 17.4616 2.18943 17.5724 2.2146C17.7988 2.26493 18.0202 2.33035 18.2618 2.41088C18.6442 2.54173 18.9411 2.65245 19.2128 2.77827C19.5399 2.91919 19.8268 3.06514 20.1136 3.23626C20.3954 3.40234 20.6873 3.57849 20.959 3.75967C21.1552 3.88549 21.432 3.8251 21.5578 3.63385C21.6887 3.43254 21.6333 3.1658 21.432 3.03495C21.1452 2.84873 20.8433 2.66252 20.5514 2.4914C20.2444 2.31022 19.9224 2.14414 19.5651 1.98812C19.2732 1.85727 18.931 1.72641 18.5486 1.59556C18.2718 1.49994 18.0202 1.42444 17.7585 1.36908C17.7284 1.36405 17.6982 1.35902 17.668 1.35902Z" fill="#F9A01B"/>
<path d="M17.6479 2.72781C17.5322 2.72781 17.4114 2.70265 17.2956 2.65735C17.2504 2.63722 17.1447 2.61709 17.0491 2.60199L17.3661 0.759979L17.2 1.68099L17.3762 0.759979C17.5523 0.790176 17.7737 0.830439 18.0001 0.926062C18.4782 1.12234 18.7097 1.67092 18.5134 2.14904C18.3675 2.50637 18.0152 2.72781 17.6479 2.72781Z" fill="#F9A01B"/>
<path d="M17.6478 3.23116C17.4616 3.23116 17.2804 3.19593 17.1043 3.12547C17.0892 3.12044 17.0288 3.11037 16.9735 3.10031L16.4854 3.00972L16.5508 2.5165L16.7118 1.59046H16.7068L16.8728 0.669456H16.8879L16.9835 0.176239L17.4717 0.261797C17.6629 0.297027 17.9195 0.342322 18.2013 0.458077C18.5586 0.604029 18.8354 0.880834 18.9813 1.23313C19.1272 1.58543 19.1323 1.97799 18.9863 2.33532C18.7549 2.87886 18.2365 3.23116 17.6478 3.23116ZM17.6226 2.2246C17.8239 2.2397 17.9799 2.12897 18.0503 1.95786C18.0956 1.85217 18.0906 1.73641 18.0503 1.62569C18.0051 1.52 17.9245 1.43444 17.8138 1.39418C17.7987 1.38915 17.7887 1.38412 17.7736 1.37908L17.6226 2.2246Z" fill="#F9A01B"/>
<path d="M17.1446 2.60195C17.0691 2.60195 16.9987 2.59188 16.9232 2.57678C16.7169 2.52645 16.5055 2.49626 16.2891 2.47109C15.7759 2.4107 15.4085 1.94768 15.4689 1.43433C15.5293 0.920982 16.0023 0.553586 16.5055 0.61398C16.7974 0.64921 17.0893 0.694505 17.361 0.759932C17.8642 0.88072 18.1712 1.384 18.0504 1.88728C17.9497 2.31004 17.5673 2.60195 17.1446 2.60195Z" fill="#F9A01B"/>
<path d="M17.1445 3.10525C17.0338 3.10525 16.9181 3.09016 16.8074 3.06499C16.6464 3.02473 16.4652 2.99453 16.2337 2.96937C15.8513 2.92407 15.5091 2.73283 15.2726 2.43589C15.0361 2.13392 14.9254 1.75646 14.9706 1.37396C15.0612 0.588843 15.7708 0.0251672 16.5658 0.110725C16.908 0.150988 17.21 0.201316 17.4817 0.266743C18.2516 0.452957 18.7297 1.23304 18.5435 2.00307C18.3875 2.6523 17.8138 3.10525 17.1445 3.10525ZM16.3998 1.10722C16.1834 1.10722 15.9922 1.27331 15.967 1.48972C15.9519 1.60547 15.9871 1.7162 16.0576 1.80679C16.128 1.89738 16.2337 1.95274 16.3444 1.96784C16.6162 1.99803 16.8376 2.0383 17.0389 2.08359C17.2854 2.14399 17.5069 1.98797 17.5622 1.76652C17.6176 1.53501 17.4767 1.29847 17.2452 1.24311C17.0137 1.18775 16.752 1.14245 16.4501 1.10722C16.43 1.10722 16.4149 1.10722 16.3998 1.10722Z" fill="#F9A01B"/>
<path d="M16.2189 2.46095C16.1736 2.46095 16.1233 2.45592 16.078 2.45088C15.8415 2.41565 15.5949 2.39049 15.3483 2.39049C14.83 2.39049 14.4124 1.97277 14.4124 1.45439C14.4124 0.936004 14.83 0.51828 15.3483 0.51828C15.6905 0.51828 16.0377 0.548477 16.3648 0.598805C16.8781 0.67933 17.2253 1.15745 17.1498 1.66576C17.0693 2.12878 16.6718 2.46095 16.2189 2.46095Z" fill="#F9A01B"/>
<path d="M16.2188 2.96431C16.1434 2.96431 16.0729 2.95928 16.0025 2.94921C15.7559 2.91398 15.5445 2.89385 15.3432 2.89385C14.5482 2.89385 13.9041 2.24965 13.9041 1.45446C13.9041 0.659277 14.5482 0.0150757 15.3432 0.0150757C15.6905 0.0150757 16.0578 0.0452726 16.4352 0.105666C16.8126 0.16606 17.1498 0.367373 17.3762 0.679408C17.6027 0.991443 17.6983 1.36891 17.6379 1.7514C17.5272 2.45096 16.9284 2.96431 16.2188 2.96431ZM15.3432 1.02164C15.1067 1.02164 14.9105 1.21792 14.9105 1.45446C14.9105 1.69101 15.1067 1.88729 15.3432 1.88729C15.5949 1.88729 15.8565 1.90742 16.1484 1.95271C16.3597 1.98291 16.6063 1.82186 16.6415 1.59035C16.6617 1.47459 16.6315 1.36387 16.561 1.26825C16.4906 1.17262 16.3899 1.11223 16.2792 1.09713C15.9521 1.0468 15.6351 1.02164 15.3432 1.02164Z" fill="#F9A01B"/>
<path d="M83.7249 17.8211C83.2066 17.8211 82.7889 17.4034 82.7889 16.885V7.27738C82.7889 4.54959 80.6653 2.40058 77.948 2.37541H15.2021C14.6838 2.37541 14.2661 1.95769 14.2661 1.43931C14.2661 0.920929 14.6838 0.503204 15.2021 0.503204H77.958C81.7221 0.533401 84.6608 3.51283 84.6608 7.27738V16.885C84.6608 17.4034 84.2432 17.8211 83.7249 17.8211Z" fill="#F9A01B"/>
<path d="M83.7249 18.3245C82.9298 18.3245 82.2857 17.6803 82.2857 16.8851V7.27243C82.2857 4.82648 80.3785 2.89387 77.943 2.87374H15.2021C14.4071 2.87374 13.7629 2.22954 13.7629 1.43435C13.7629 0.639168 14.4071 0 15.2021 0H77.9581C81.9989 0.0352298 85.1641 3.23107 85.1641 7.27746V16.8902C85.1641 17.6803 84.52 18.3245 83.7249 18.3245ZM77.953 1.00656H15.2021C14.9656 1.00656 14.7694 1.20284 14.7694 1.43939C14.7694 1.67593 14.9656 1.87221 15.2021 1.87221H77.948C80.9472 1.89737 83.2921 4.27287 83.2921 7.27746V16.8902C83.2921 17.1267 83.4884 17.323 83.7249 17.323C83.9614 17.323 84.1577 17.1267 84.1577 16.8902V7.27746C84.1577 3.78972 81.4303 1.03676 77.953 1.00656Z" fill="#F9A01B"/>
<path d="M83.7248 71.8885C83.2065 71.8885 82.7888 71.4708 82.7888 70.9524V16.8848C82.7888 16.3664 83.2065 15.9487 83.7248 15.9487C84.2431 15.9487 84.6608 16.3664 84.6608 16.8848V70.9524C84.6608 71.4708 84.2431 71.8885 83.7248 71.8885Z" fill="#F9A01B"/>
<path d="M83.7248 72.3919C82.9298 72.3919 82.2856 71.7477 82.2856 70.9525V16.8849C82.2856 16.0897 82.9298 15.4455 83.7248 15.4455C84.5199 15.4455 85.164 16.0897 85.164 16.8849V70.9525C85.164 71.7477 84.5199 72.3919 83.7248 72.3919ZM83.7248 16.4571C83.4883 16.4571 83.2921 16.6534 83.2921 16.8899V70.9575C83.2921 71.1941 83.4883 71.3904 83.7248 71.3904C83.9613 71.3904 84.1576 71.1941 84.1576 70.9575V16.8849C84.1576 16.6483 83.9613 16.4571 83.7248 16.4571Z" fill="#F9A01B"/>
<path d="M25.9208 13.3772C25.4025 13.3772 24.9848 12.9594 24.9848 12.4411C24.9848 12.0988 24.9697 11.7667 24.9345 11.4345C24.9093 11.1174 24.8691 10.8557 24.8187 10.594C24.7432 10.2065 24.6527 9.82399 24.5369 9.44653C24.1545 8.23362 23.5557 7.1113 22.7606 6.11983C22.5845 5.89336 22.4033 5.69205 22.202 5.5008C22.1618 5.46557 22.1265 5.4253 22.0963 5.38001C21.8548 5.14347 21.6585 4.96732 21.4573 4.79117C21.1905 4.55463 20.9389 4.36841 20.6823 4.18723C20.6521 4.1671 20.6269 4.14194 20.5968 4.1218L20.5615 4.10167C20.3451 3.96075 20.1187 3.80977 19.8923 3.69401C19.5702 3.50277 19.2934 3.36688 19.0066 3.24106C18.7097 3.11021 18.4128 2.99445 18.1008 2.88876C17.8995 2.8183 17.7133 2.76294 17.5221 2.71765C17.4466 2.70758 17.3711 2.68745 17.2957 2.65725C17.2504 2.63712 17.1447 2.61699 17.0491 2.60189C17.0139 2.59686 16.9786 2.58679 16.9434 2.57673H16.9384C16.717 2.5264 16.5157 2.49117 16.2943 2.46601C16.249 2.46601 16.1232 2.45594 16.0779 2.45091C15.786 2.40561 15.4791 2.43078 15.1872 2.37541H14.9306C9.38009 2.37541 4.86122 6.88986 4.86122 12.4411C4.86122 12.9594 4.44355 13.3772 3.92524 13.3772C3.40693 13.3772 2.98926 12.9594 2.98926 12.4411C2.98423 5.85813 8.33844 0.503204 14.9205 0.503204H15.1973C15.2425 0.503204 15.308 0.508237 15.3784 0.518303C15.7055 0.518303 16.0376 0.553533 16.3547 0.598828C16.2993 0.588762 16.4452 0.588762 16.6012 0.623992C16.7925 0.639091 17.0642 0.684386 17.351 0.749813C17.3711 0.754845 17.3862 0.759878 17.4064 0.764911C17.5322 0.785042 17.668 0.815239 17.8089 0.855502C17.8744 0.865568 17.9448 0.880666 18.0102 0.910863C18.2467 0.966224 18.4782 1.03668 18.7097 1.11721C19.0569 1.23296 19.4041 1.36885 19.7564 1.51983C20.1187 1.68088 20.4659 1.852 20.8031 2.05331C21.0346 2.1741 21.3164 2.35528 21.5881 2.53143C21.5982 2.5415 21.6384 2.56666 21.6787 2.59686C21.734 2.62706 21.7793 2.66229 21.8296 2.70255C22.1165 2.90889 22.3983 3.12531 22.6599 3.35178C22.9065 3.56819 23.1229 3.75944 23.3242 3.96075C23.4198 4.04128 23.4902 4.1218 23.5406 4.19226C23.7922 4.43384 24.0136 4.69051 24.2249 4.96229C25.1609 6.12487 25.8704 7.45353 26.3183 8.88789C26.4592 9.32574 26.5649 9.78373 26.6555 10.2367C26.7209 10.5689 26.7662 10.896 26.7964 11.2382C26.8417 11.6257 26.8568 12.0284 26.8568 12.4461C26.8568 12.9594 26.4391 13.3772 25.9208 13.3772Z" fill="#F9A01B"/>
<path d="M25.9207 13.8805C25.1256 13.8805 24.4815 13.2363 24.4815 12.4411C24.4815 12.0737 24.4664 11.7718 24.4362 11.495C24.4111 11.198 24.3758 10.9565 24.3255 10.6897C24.24 10.2619 24.1544 9.91466 24.0538 9.59759C23.6915 8.44004 23.1228 7.37812 22.363 6.43195C22.1869 6.20547 22.0258 6.02429 21.8497 5.86324C21.7994 5.81794 21.7541 5.76761 21.7088 5.71225C21.4874 5.49584 21.3012 5.33479 21.12 5.16871C20.8634 4.94223 20.6168 4.76105 20.3853 4.6C20.3602 4.57987 20.33 4.55974 20.3048 4.53961L20.2797 4.52451C20.0532 4.37856 19.8469 4.24267 19.6507 4.14201C19.3487 3.96586 19.0921 3.83501 18.7952 3.70416C18.5084 3.57834 18.2215 3.46761 17.9297 3.37199C17.7334 3.30153 17.5673 3.25624 17.4013 3.21597C17.3208 3.20591 17.205 3.17571 17.0943 3.13042C17.0792 3.13042 17.0188 3.12035 16.9635 3.11028C16.9031 3.10022 16.8528 3.09015 16.8075 3.07505C16.6364 3.02473 16.4552 2.99453 16.254 2.96937C16.1785 2.96433 16.0527 2.95427 15.9973 2.94923C15.8765 2.9291 15.7558 2.92407 15.63 2.91904C15.474 2.914 15.3079 2.90394 15.1368 2.87877H14.9204C9.64674 2.87877 5.35935 7.17177 5.35935 12.4411C5.35935 13.2363 4.71523 13.8805 3.92015 13.8805C3.12507 13.8805 2.48096 13.2363 2.48096 12.4411C2.48096 5.5814 8.06161 0 14.9204 0H15.1972C15.2475 0 15.328 0.00503282 15.4086 0.0150985C15.7054 0.0201313 16.0174 0.0452954 16.3395 0.0905908C16.4301 0.085558 16.5408 0.100656 16.6767 0.125821C16.893 0.145952 17.1698 0.19628 17.4566 0.261707L17.5673 0.286871C17.6579 0.301969 17.7837 0.327133 17.9146 0.367396C17.9951 0.382495 18.0756 0.402626 18.1511 0.432823C18.3876 0.493217 18.6191 0.563676 18.8656 0.649234C19.2129 0.770022 19.5802 0.905908 19.9425 1.06696C20.3501 1.24814 20.7124 1.42932 21.0496 1.63063C21.276 1.74639 21.5578 1.92757 21.8547 2.12385C21.8547 2.12385 21.89 2.14398 21.9252 2.16915C22.0007 2.21444 22.0711 2.26477 22.1315 2.32013C22.4787 2.57177 22.7505 2.78315 22.9819 2.9895C23.2386 3.21597 23.46 3.41225 23.6663 3.61357C23.7569 3.68906 23.8475 3.78972 23.9079 3.86521C24.1595 4.10678 24.3909 4.36849 24.6174 4.66543C25.5886 5.8733 26.3233 7.24726 26.7963 8.74705C26.9271 9.1547 27.0378 9.61269 27.1435 10.1512C27.214 10.5035 27.2593 10.8457 27.2895 11.2081C27.3297 11.5805 27.3549 11.9982 27.3549 12.4562C27.3599 13.2363 26.7158 13.8805 25.9207 13.8805ZM16.9987 2.07352L17.0843 2.09365C17.0994 2.09869 17.1195 2.10372 17.1346 2.10372C17.3006 2.13392 17.3963 2.15405 17.4818 2.18928C17.512 2.20438 17.5472 2.20941 17.5875 2.21947C17.834 2.27484 18.0353 2.3302 18.2618 2.41072C18.5788 2.51641 18.8908 2.6372 19.2028 2.77309C19.5399 2.91904 19.8318 3.07002 20.1438 3.25624C20.3602 3.36696 20.5866 3.51794 20.808 3.66389L20.9238 3.73939C20.9389 3.74945 20.954 3.76455 20.964 3.77462C21.2157 3.95077 21.4874 4.15208 21.7793 4.41379C21.9856 4.59497 22.1869 4.77615 22.4385 5.02276L22.4938 5.08315C22.5039 5.09825 22.519 5.11335 22.5341 5.12845C22.7454 5.32976 22.9467 5.5512 23.148 5.80788C23.9783 6.84464 24.6073 8.01729 25.0099 9.29562C25.1206 9.64792 25.2162 10.0254 25.3068 10.4934C25.3621 10.7954 25.4024 11.0772 25.4276 11.3893C25.4628 11.6963 25.4779 12.0335 25.4779 12.4361C25.4779 12.6726 25.6741 12.8689 25.9106 12.8689C26.1472 12.8689 26.3434 12.6726 26.3434 12.4361C26.3434 12.0133 26.3233 11.6359 26.283 11.2836C26.2528 10.9464 26.2126 10.6394 26.1472 10.3223C26.0465 9.81904 25.9408 9.39628 25.8251 9.02888C25.3923 7.64989 24.718 6.38665 23.8173 5.26937C23.6059 4.99759 23.3996 4.76608 23.1732 4.54967L23.148 4.49934C23.1077 4.45405 23.0625 4.39365 23.0021 4.34333C22.7756 4.12691 22.5693 3.9407 22.3328 3.73435C22.1114 3.53807 21.8648 3.34179 21.5327 3.11028L21.4924 3.08009C21.4723 3.05996 21.4471 3.04486 21.422 3.02976L21.3213 2.96433C21.0496 2.78315 20.7779 2.61203 20.5715 2.50131C20.2444 2.31007 19.9174 2.14398 19.55 1.98293C19.2129 1.83698 18.8757 1.70613 18.5486 1.5954C18.3171 1.51488 18.1058 1.44945 17.8944 1.39912L17.824 1.37899C17.7988 1.36893 17.7686 1.36389 17.7384 1.35886L17.663 1.33873C17.5422 1.3035 17.4214 1.27834 17.3157 1.25821L16.9031 1.17265C16.7723 1.14748 16.6565 1.13239 16.5609 1.12232L16.4955 1.11225C16.4452 1.10219 16.3949 1.09212 16.3697 1.09212L16.3848 0.593873H16.3747L16.2892 1.09212C15.9722 1.04179 15.6702 1.01663 15.3884 1.01663L15.3331 1.0116C15.2777 1.0116 15.2324 1.00656 15.2022 1.00656H14.9255C8.61515 1.00656 3.48739 6.13501 3.48739 12.4411C3.48739 12.6777 3.68364 12.874 3.92015 12.874C4.15666 12.874 4.35292 12.6777 4.35292 12.4411C4.35292 6.61313 9.0932 1.87221 14.9204 1.87221L15.2677 1.88228C15.3985 1.90744 15.5344 1.91247 15.6702 1.91751C15.8313 1.92254 15.9923 1.9326 16.1483 1.95777C16.1785 1.9628 16.254 1.96783 16.2892 1.96783L16.3496 1.97287C16.581 1.99803 16.7823 2.03326 16.9937 2.07856L16.9987 2.07352Z" fill="#F9A01B"/>
<path d="M25.8905 13.3772H3.92011C3.4018 13.3772 2.98413 12.9594 2.98413 12.441C2.98413 11.9227 3.4018 11.5049 3.92011 11.5049H25.8955C26.4138 11.5049 26.8315 11.9227 26.8315 12.441C26.8315 12.9594 26.4088 13.3772 25.8905 13.3772Z" fill="#F9A01B"/>
<path d="M25.8905 13.8805H3.92015C3.12507 13.8805 2.48096 13.2363 2.48096 12.4411C2.48096 11.6459 3.12507 11.0017 3.92015 11.0017H25.8956C26.6906 11.0017 27.3347 11.6459 27.3347 12.4411C27.3347 13.2363 26.6856 13.8805 25.8905 13.8805ZM3.92015 12.0083C3.68364 12.0083 3.48739 12.2046 3.48739 12.4411C3.48739 12.6777 3.68364 12.8739 3.92015 12.8739H25.8956C26.1321 12.8739 26.3283 12.6777 26.3283 12.4411C26.3283 12.2046 26.1321 12.0083 25.8956 12.0083H3.92015Z" fill="#F9A01B"/>
<path d="M56.7325 47.54H33.1267C32.6083 47.54 32.1907 47.1222 32.1907 46.6039C32.1907 46.0855 32.6083 45.6678 33.1267 45.6678H56.7325C57.2508 45.6678 57.6685 46.0855 57.6685 46.6039C57.6685 47.1222 57.2458 47.54 56.7325 47.54Z" fill="#F9A01B"/>
<path d="M56.7325 48.0433H33.1267C32.3316 48.0433 31.6875 47.3991 31.6875 46.6039C31.6875 45.8088 32.3316 45.1646 33.1267 45.1646H56.7325C57.5276 45.1646 58.1717 45.8088 58.1717 46.6039C58.1717 47.3991 57.5226 48.0433 56.7325 48.0433ZM33.1267 46.1711C32.8902 46.1711 32.6939 46.3674 32.6939 46.6039C32.6939 46.8405 32.8902 47.0368 33.1267 47.0368H56.7325C56.969 47.0368 57.1653 46.8405 57.1653 46.6039C57.1653 46.3674 56.969 46.1711 56.7325 46.1711H33.1267Z" fill="#F9A01B"/>
<path d="M44.6454 52.4217H33.1218C32.6035 52.4217 32.1858 52.004 32.1858 51.4856C32.1858 50.9672 32.6035 50.5495 33.1218 50.5495H44.6454C45.1637 50.5495 45.5814 50.9672 45.5814 51.4856C45.5814 52.004 45.1637 52.4217 44.6454 52.4217Z" fill="#F9A01B"/>
<path d="M44.6454 52.9251H33.1218C32.3267 52.9251 31.6826 52.2809 31.6826 51.4857C31.6826 50.6905 32.3267 50.0463 33.1218 50.0463H44.6454C45.4405 50.0463 46.0846 50.6905 46.0846 51.4857C46.0846 52.2809 45.4405 52.9251 44.6454 52.9251ZM33.1268 51.0529C32.8903 51.0529 32.6941 51.2491 32.6941 51.4857C32.6941 51.7222 32.8903 51.9185 33.1268 51.9185H44.6505C44.887 51.9185 45.0832 51.7222 45.0832 51.4857C45.0832 51.2491 44.887 51.0529 44.6505 51.0529H33.1268Z" fill="#F9A01B"/>
<path d="M51.5242 59.144H33.1267C32.6083 59.144 32.1907 58.7262 32.1907 58.2079C32.1907 57.6895 32.6083 57.2718 33.1267 57.2718H51.5242C52.0425 57.2718 52.4602 57.6895 52.4602 58.2079C52.4602 58.7262 52.0425 59.144 51.5242 59.144Z" fill="#F9A01B"/>
<path d="M51.5242 59.6473H33.1267C32.3316 59.6473 31.6875 59.0031 31.6875 58.2079C31.6875 57.4128 32.3316 56.7686 33.1267 56.7686H51.5242C52.3193 56.7686 52.9634 57.4128 52.9634 58.2079C52.9634 59.0031 52.3193 59.6473 51.5242 59.6473ZM33.1267 57.7751C32.8902 57.7751 32.6939 57.9714 32.6939 58.2079C32.6939 58.4445 32.8902 58.6408 33.1267 58.6408H51.5242C51.7607 58.6408 51.957 58.4445 51.957 58.2079C51.957 57.9714 51.7607 57.7751 51.5242 57.7751H33.1267Z" fill="#F9A01B"/>
<path d="M42.2249 64.2406H33.3935C32.8752 64.2406 32.4575 63.8229 32.4575 63.3045C32.4575 62.7862 32.8752 62.3684 33.3935 62.3684H42.2249C42.7432 62.3684 43.1609 62.7862 43.1609 63.3045C43.1609 63.8179 42.7432 64.2406 42.2249 64.2406Z" fill="#F9A01B"/>
<path d="M42.225 64.744H33.3935C32.5985 64.744 31.9543 64.0998 31.9543 63.3046C31.9543 62.5094 32.5985 61.8652 33.3935 61.8652H42.225C43.02 61.8652 43.6642 62.5094 43.6642 63.3046C43.6642 64.0998 43.02 64.744 42.225 64.744ZM33.3935 62.8718C33.157 62.8718 32.9608 63.0681 32.9608 63.3046C32.9608 63.5412 33.157 63.7374 33.3935 63.7374H42.225C42.4615 63.7374 42.6577 63.5412 42.6577 63.3046C42.6577 63.0681 42.4615 62.8718 42.225 62.8718H33.3935Z" fill="#F9A01B"/>
<path d="M61.6237 69.2163H33.1267C32.6083 69.2163 32.1907 68.7986 32.1907 68.2802C32.1907 67.7618 32.6083 67.3441 33.1267 67.3441H61.6287C62.1471 67.3441 62.5647 67.7618 62.5647 68.2802C62.5647 68.7986 62.142 69.2163 61.6237 69.2163Z" fill="#F9A01B"/>
<path d="M61.6238 69.7197H33.1267C32.3316 69.7197 31.6875 69.0755 31.6875 68.2803C31.6875 67.4851 32.3316 66.8409 33.1267 66.8409H61.6288C62.4239 66.8409 63.068 67.4851 63.068 68.2803C63.068 69.0755 62.4188 69.7197 61.6238 69.7197ZM33.1267 67.8525C32.8902 67.8525 32.6939 68.0488 32.6939 68.2853C32.6939 68.5219 32.8902 68.7181 33.1267 68.7181H61.6288C61.8653 68.7181 62.0616 68.5219 62.0616 68.2853C62.0616 68.0488 61.8653 67.8525 61.6288 67.8525H33.1267Z" fill="#F9A01B"/>
<path d="M25.951 55.4163H25.6843C25.166 55.4163 24.7483 54.9986 24.7483 54.4802C24.7483 53.9619 25.166 53.5441 25.6843 53.5441H25.9258C26.4441 53.5441 26.8769 53.9619 26.8769 54.4802C26.8769 54.9986 26.4643 55.4163 25.951 55.4163Z" fill="#F9A01B"/>
<path d="M25.951 55.9197H25.6843C24.8892 55.9197 24.2451 55.2755 24.2451 54.4803C24.2451 53.6851 24.8892 53.0409 25.6843 53.0409H25.9259C26.726 53.0409 27.3801 53.6851 27.3801 54.4803C27.3801 55.2755 26.736 55.9197 25.951 55.9197ZM25.6843 54.0475C25.4478 54.0475 25.2515 54.2438 25.2515 54.4803C25.2515 54.7169 25.4478 54.9131 25.6843 54.9131H25.951C26.1875 54.9131 26.3687 54.7219 26.3687 54.4803C26.3687 54.2438 26.1624 54.0475 25.9208 54.0475H25.6843Z" fill="#F9A01B"/>
<path d="M53.059 96.2575C52.8527 96.2575 52.6464 96.1921 52.4803 96.0562L0.920917 55.2148C0.518345 54.8927 0.447895 54.3039 0.769953 53.9013C1.09201 53.4936 1.68077 53.4282 2.08334 53.7503L53.059 94.1336L103.864 53.7503C104.266 53.4282 104.855 53.4936 105.177 53.9013C105.499 54.3039 105.434 54.8927 105.026 55.2148L53.6377 96.0562C53.4666 96.1921 53.2653 96.2575 53.059 96.2575Z" fill="#F9A01B"/>
<path d="M53.0591 96.7659C52.737 96.7659 52.42 96.6551 52.1684 96.4538L0.608984 55.6074C-0.0150024 55.1142 -0.120678 54.2083 0.372473 53.5842C0.865624 52.9652 1.77141 52.8595 2.39037 53.3477L53.0541 93.4845L103.552 53.3527C103.849 53.1162 104.231 53.0055 104.608 53.0508C104.991 53.0961 105.333 53.2823 105.575 53.5842C105.811 53.8862 105.922 54.2586 105.877 54.6411C105.831 55.0236 105.645 55.3659 105.343 55.6074L53.9548 96.4488C53.6982 96.6501 53.3811 96.7659 53.0591 96.7659ZM1.49967 54.0523C1.37387 54.0523 1.24304 54.1077 1.15749 54.2184C1.01156 54.4046 1.04175 54.6764 1.22794 54.8273L52.7823 95.6687C52.9383 95.7895 53.1648 95.7895 53.3157 95.6687L104.704 54.8273C104.795 54.7569 104.85 54.6512 104.865 54.5354C104.88 54.4197 104.845 54.309 104.775 54.2184C104.704 54.1278 104.598 54.0724 104.483 54.0573C104.367 54.0422 104.256 54.0775 104.166 54.1479L53.044 94.7779L1.76638 54.1429C1.6909 54.0825 1.59529 54.0523 1.49967 54.0523Z" fill="#F9A01B"/>
<path d="M104.447 114.497L1.49967 114.411C1.10717 114.411 0.709625 114.17 0.573757 113.797C0.437889 113.43 0.493243 113.017 0.795172 112.76C0.800204 112.755 0.900847 112.67 0.905879 112.665L37.2128 82.5283C37.6104 82.1962 38.1991 82.2515 38.5313 82.6491C38.8634 83.0467 38.808 83.6356 38.4105 83.9677L3.99059 112.539L101.821 112.62L67.1994 84.3553C66.7968 84.0281 66.7415 83.4393 67.0636 83.0367C67.3906 82.6391 67.9794 82.5787 68.382 82.9058L105.041 112.831C105.348 113.083 105.464 113.495 105.333 113.868C105.192 114.245 104.84 114.497 104.447 114.497Z" fill="#F9A01B"/>
<path d="M104.447 115L1.4997 114.915C0.880747 114.915 0.307082 114.527 0.100763 113.973C-0.115619 113.385 0.0252812 112.761 0.463078 112.383L0.528496 112.328C0.573786 112.292 0.614043 112.257 0.619075 112.257L36.8908 82.1459C37.1827 81.8993 37.5551 81.7835 37.9425 81.8187C38.325 81.854 38.6722 82.0351 38.9188 82.3321C39.1653 82.629 39.2811 83.0014 39.2459 83.3839C39.2106 83.7664 39.0295 84.1137 38.7326 84.3603L5.38452 112.041L100.407 112.116L66.8774 84.7478C66.2635 84.2445 66.1729 83.3386 66.6711 82.7246C67.1793 82.1106 68.0851 82.02 68.699 82.5183L105.358 112.443C105.831 112.831 106.007 113.47 105.801 114.044C105.595 114.613 105.051 115 104.447 115ZM1.11726 113.148C0.976358 113.269 0.986422 113.475 1.04178 113.626C1.09713 113.782 1.30345 113.908 1.49467 113.908L104.442 113.994V114.497V113.994C104.624 113.994 104.79 113.878 104.85 113.707C104.91 113.536 104.855 113.344 104.714 113.229L68.0549 83.3034C67.8687 83.1524 67.597 83.1826 67.446 83.3638C67.3001 83.545 67.3253 83.8218 67.5115 83.9728L103.23 113.128L2.59671 113.042L38.0885 83.5852C38.1791 83.5098 38.2344 83.4091 38.2445 83.2933C38.2545 83.1776 38.2193 83.0669 38.1489 82.9763C38.0734 82.8857 37.9727 82.8303 37.857 82.8203C37.7362 82.8102 37.6305 82.8454 37.545 82.9159L1.18771 113.093C1.16255 113.108 1.14242 113.128 1.11726 113.148Z" fill="#F9A01B"/>
<path d="M104.447 55.4164C104.241 55.4164 104.035 55.3509 103.864 55.2151L83.4483 38.9943C83.0457 38.6722 82.9752 38.0833 83.2973 37.6807C83.6194 37.2731 84.2081 37.2076 84.6107 37.5297L105.026 53.7505C105.429 54.0726 105.499 54.6615 105.177 55.0641C104.996 55.2956 104.724 55.4164 104.447 55.4164Z" fill="#F9A01B"/>
<path d="M104.447 55.9197C104.12 55.9197 103.803 55.809 103.552 55.6077L83.1413 39.3869C82.8393 39.1503 82.6481 38.8081 82.6079 38.4256C82.5626 38.0431 82.6733 37.6657 82.9098 37.3637C83.1463 37.0617 83.4885 36.8755 83.8709 36.8302C84.2534 36.7849 84.6308 36.8956 84.9327 37.1322L105.348 53.353C105.65 53.5895 105.841 53.9317 105.882 54.3142C105.927 54.6967 105.816 55.0742 105.58 55.3711C105.298 55.7234 104.89 55.9197 104.447 55.9197ZM84.032 37.8267C84.0169 37.8267 83.9967 37.8267 83.9816 37.8317C83.8659 37.8468 83.7653 37.9022 83.6948 37.9928C83.6193 38.0834 83.5891 38.1991 83.6042 38.3149C83.6193 38.4306 83.6747 38.5313 83.7653 38.6018L104.181 54.8225C104.276 54.898 104.382 54.9182 104.447 54.9182C104.578 54.9182 104.704 54.8578 104.785 54.7571C104.855 54.6665 104.89 54.5508 104.875 54.4401C104.86 54.3243 104.805 54.2236 104.714 54.1532L84.2987 37.9324C84.2232 37.8619 84.1276 37.8267 84.032 37.8267Z" fill="#F9A01B"/>
<path d="M25.6843 55.4166H1.49981C1.10227 55.4166 0.744988 55.165 0.614152 54.7875C0.483316 54.4101 0.604088 53.9923 0.916081 53.7457L25.2667 34.4549C25.6692 34.1379 26.258 34.2033 26.58 34.6059C26.9021 35.0136 26.8317 35.5974 26.4291 35.9195L4.18698 53.5444H25.6793C26.1976 53.5444 26.6153 53.9621 26.6153 54.4805C26.6153 54.9989 26.1976 55.4166 25.6843 55.4166Z" fill="#F9A01B"/>
<path d="M25.6843 55.9197H1.4998C0.885881 55.9197 0.342409 55.5322 0.141123 54.9534C-0.0601635 54.3746 0.126026 53.7304 0.609113 53.353L24.9597 34.0622C25.5786 33.569 26.4844 33.6746 26.9776 34.2937C27.4707 34.9177 27.3651 35.8237 26.7461 36.3169L5.63623 53.0409H25.6843C26.4794 53.0409 27.1235 53.6852 27.1235 54.4803C27.1235 55.2755 26.4744 55.9197 25.6843 55.9197ZM25.8504 34.7617C25.7548 34.7617 25.6642 34.7919 25.5837 34.8523L1.2331 54.1431C1.08717 54.2589 1.03181 54.4501 1.0922 54.6263C1.15258 54.7974 1.31865 54.9182 1.4998 54.9182H25.6843C25.9208 54.9182 26.1171 54.7219 26.1171 54.4854C26.1171 54.2488 25.9208 54.0525 25.6843 54.0525H2.74274L26.1221 35.5318C26.3083 35.3858 26.3435 35.109 26.1926 34.9228C26.107 34.8171 25.9812 34.7617 25.8504 34.7617Z" fill="#F9A01B"/>
<path d="M47.3727 37.8265H33.1267C32.6083 37.8265 32.1907 37.4088 32.1907 36.8904C32.1907 36.372 32.6083 35.9543 33.1267 35.9543H47.3777C47.896 35.9543 48.3137 36.372 48.3137 36.8904C48.3137 37.4088 47.891 37.8265 47.3727 37.8265Z" fill="#F9A01B"/>
<path d="M47.3727 38.3299H33.1267C32.3316 38.3299 31.6875 37.6857 31.6875 36.8905C31.6875 36.0953 32.3316 35.4511 33.1267 35.4511H47.3777C48.1728 35.4511 48.8169 36.0953 48.8169 36.8905C48.8169 37.6857 48.1678 38.3299 47.3727 38.3299ZM33.1267 36.4627C32.8902 36.4627 32.6939 36.659 32.6939 36.8955C32.6939 37.1321 32.8902 37.3283 33.1267 37.3283H47.3777C47.6143 37.3283 47.8105 37.1321 47.8105 36.8955C47.8105 36.659 47.6143 36.4627 47.3777 36.4627H33.1267Z" fill="#F9A01B"/>
<path d="M51.5242 33.1613H33.1267C32.6083 33.1613 32.1907 32.7436 32.1907 32.2252C32.1907 31.7068 32.6083 31.2891 33.1267 31.2891H51.5242C52.0425 31.2891 52.4602 31.7068 52.4602 32.2252C52.4602 32.7385 52.0425 33.1613 51.5242 33.1613Z" fill="#F9A01B"/>
<path d="M51.5242 33.6646H33.1267C32.3316 33.6646 31.6875 33.0204 31.6875 32.2252C31.6875 31.4301 32.3316 30.7859 33.1267 30.7859H51.5242C52.3193 30.7859 52.9634 31.4301 52.9634 32.2252C52.9634 33.0204 52.3193 33.6646 51.5242 33.6646ZM33.1267 31.7924C32.8902 31.7924 32.6939 31.9887 32.6939 32.2252C32.6939 32.4618 32.8902 32.6581 33.1267 32.6581H51.5242C51.7607 32.6581 51.957 32.4618 51.957 32.2252C51.957 31.9887 51.7607 31.7924 51.5242 31.7924H33.1267Z" fill="#F9A01B"/>
<path d="M47.3727 25.0685H33.1267C32.6083 25.0685 32.1907 24.6507 32.1907 24.1324C32.1907 23.614 32.6083 23.1963 33.1267 23.1963H47.3777C47.896 23.1963 48.3137 23.614 48.3137 24.1324C48.3087 24.6507 47.891 25.0685 47.3727 25.0685Z" fill="#F9A01B"/>
<path d="M47.3727 25.5718H33.1267C32.3316 25.5718 31.6875 24.9276 31.6875 24.1324C31.6875 23.3373 32.3316 22.6931 33.1267 22.6931H47.3777C48.1728 22.6931 48.8169 23.3373 48.8169 24.1324C48.8169 24.9276 48.1678 25.5718 47.3727 25.5718ZM33.1267 23.6996C32.8902 23.6996 32.6939 23.8959 32.6939 24.1324C32.6939 24.369 32.8902 24.5653 33.1267 24.5653H47.3777C47.6143 24.5653 47.8105 24.369 47.8105 24.1324C47.8105 23.8959 47.6143 23.6996 47.3777 23.6996H33.1267Z" fill="#F9A01B"/>
<path d="M97.3569 76.7002C112.309 76.7002 124.43 64.5776 124.43 49.6236C124.43 34.6697 112.309 22.5471 97.3569 22.5471C82.4049 22.5471 70.2839 34.6697 70.2839 49.6236C70.2839 64.5776 82.4049 76.7002 97.3569 76.7002Z" fill="white"/>
<path d="M97.3569 76.7002C112.309 76.7002 124.43 64.5776 124.43 49.6236C124.43 34.6697 112.309 22.5471 97.3569 22.5471C82.4049 22.5471 70.2839 34.6697 70.2839 49.6236C70.2839 64.5776 82.4049 76.7002 97.3569 76.7002Z" fill="white"/>
<path d="M97.357 77.7169C81.8378 77.7169 69.2122 65.0895 69.2122 49.5683C69.2122 39.558 74.6066 30.2171 83.2871 25.1944C83.7702 24.9176 84.3841 25.0786 84.6609 25.5618C84.9376 26.0449 84.7766 26.6589 84.2935 26.9357C76.232 31.6011 71.225 40.2727 71.225 49.5683C71.225 63.9773 82.9449 75.7038 97.357 75.7038C111.769 75.7038 123.489 63.9823 123.489 49.5683C123.489 36.2716 113.51 25.2648 100.653 23.6392L102.787 25.2397C103.229 25.5718 103.32 26.206 102.988 26.6488C102.656 27.0917 102.027 27.1823 101.579 26.8502L96.7632 23.2366C96.733 23.2165 96.7028 23.1913 96.6776 23.1661C96.6525 23.141 96.6273 23.1158 96.6072 23.0906C96.4512 22.9145 96.3556 22.683 96.3556 22.4263C96.3556 22.1696 96.4512 21.9381 96.6072 21.762C96.6323 21.7368 96.6575 21.7116 96.6827 21.6865C96.7078 21.6613 96.738 21.6412 96.7632 21.6211L101.579 18.0075C102.027 17.6753 102.656 17.7659 102.988 18.2088C103.32 18.6517 103.229 19.2858 102.787 19.618L100.19 21.5657C114.386 22.99 125.502 35.0084 125.502 49.5734C125.497 65.0895 112.876 77.7169 97.357 77.7169Z" fill="#2D2D82"/>
<path d="M97.357 78.2202C81.5611 78.2202 68.709 65.3664 68.709 49.5683C68.709 39.3769 74.1991 29.8749 83.0305 24.7616C83.7501 24.3438 84.676 24.5904 85.0937 25.3101C85.5113 26.0298 85.2648 26.9559 84.5452 27.3736C76.6397 31.9484 71.7283 40.4539 71.7283 49.5683C71.7283 63.7005 83.2267 75.2005 97.357 75.2005C111.487 75.2005 122.986 63.7005 122.986 49.5683C122.986 37.3738 114.361 26.9257 102.606 24.4797L103.089 24.8421C103.411 25.0837 103.622 25.436 103.677 25.8386C103.733 26.2412 103.632 26.6338 103.391 26.9559C102.892 27.6202 101.941 27.7561 101.277 27.2578L96.4613 23.6443C96.421 23.6141 96.3757 23.5788 96.3355 23.5386C96.3003 23.5084 96.265 23.4732 96.2298 23.4329C96.0084 23.1813 95.8776 22.8692 95.8524 22.5421L95.7115 22.1898L95.8826 22.1042C95.9379 21.8526 96.0537 21.6211 96.2298 21.4248C96.2701 21.3845 96.3053 21.3443 96.3456 21.309C96.3858 21.2738 96.4261 21.2386 96.4714 21.2084L101.282 17.5999C101.951 17.1016 102.897 17.2375 103.396 17.9018C103.637 18.2239 103.738 18.6215 103.682 19.0191C103.627 19.4167 103.416 19.774 103.094 20.0156L101.498 21.2134C115.558 23.2366 126.01 35.2147 126.01 49.5683C126 65.3664 113.153 78.2202 97.357 78.2202ZM83.7853 25.5618C83.6998 25.5618 83.6142 25.5819 83.5337 25.6272C75.0092 30.5594 69.7104 39.7342 69.7104 49.5633C69.7104 64.8077 82.1096 77.2086 97.352 77.2086C112.594 77.2086 124.994 64.8077 124.994 49.5633C124.994 35.3053 114.305 23.4832 100.135 22.0589L98.8516 21.9281L102.48 19.2053C102.585 19.1248 102.656 19.009 102.676 18.8732C102.696 18.7423 102.661 18.6064 102.58 18.5007C102.414 18.2793 102.097 18.234 101.876 18.4001L97.0601 22.0136C97.04 22.0287 97.0299 22.0388 97.0148 22.0489C96.9997 22.064 96.9846 22.0791 96.9746 22.0942C96.9092 22.1697 96.8689 22.2602 96.8538 22.3609L96.9544 22.683L96.9293 22.6981C96.9444 22.7182 96.9595 22.7384 96.9746 22.7585C96.9846 22.7686 96.9947 22.7837 97.0098 22.7937C97.0249 22.8088 97.04 22.8189 97.0501 22.829L101.871 26.4476C102.092 26.6136 102.409 26.5683 102.575 26.3469C102.656 26.2412 102.691 26.1053 102.671 25.9745C102.651 25.8436 102.58 25.7228 102.475 25.6423L98.8214 22.8994L100.708 23.136C113.978 24.8119 123.982 36.176 123.982 49.5633C123.982 64.2491 112.036 76.202 97.3469 76.202C82.6581 76.202 70.7118 64.2541 70.7118 49.5633C70.7118 40.0915 75.8144 31.2539 84.0319 26.4979C84.2734 26.357 84.3539 26.05 84.2181 25.8084C84.1325 25.6524 83.9614 25.5618 83.7853 25.5618Z" fill="#2D2D82"/>
<path d="M94.7503 52.0594H97.2413V54.0172C97.2413 54.1984 97.1809 54.3594 97.0651 54.4903C96.9494 54.6211 96.7733 54.6866 96.5468 54.6866H94.7554V59.5181H91.8015V54.6866H83.4582C83.2317 54.6866 83.0305 54.6161 82.8543 54.4752C82.6832 54.3342 82.5725 54.1581 82.5272 53.9467L82.1851 52.2356L91.5549 39.7189H94.7554V52.0594H94.7503ZM91.7965 45.5872C91.7965 45.2953 91.8065 44.9782 91.8216 44.641C91.8418 44.3038 91.8719 43.9515 91.9172 43.5892L85.773 52.0594H91.7914V45.5872H91.7965Z" fill="#2D2D82"/>
<path d="M95.2536 60.0214H91.2933V55.1899H83.4532C83.106 55.1899 82.799 55.0792 82.5323 54.8628C82.2706 54.6514 82.0995 54.3746 82.0291 54.0525L81.6416 52.1149L91.2983 39.2157H95.2536V51.5562H97.7445V54.0173C97.7445 54.3243 97.6388 54.6011 97.4375 54.8275C97.2866 54.9936 97.0098 55.1949 96.5418 55.1949H95.2536V60.0214ZM92.2997 59.0149H94.2471V54.1833H96.5418C96.6123 54.1833 96.6676 54.1733 96.6877 54.1531C96.7179 54.1179 96.7381 54.0827 96.7381 54.0173V52.5628H94.2471V40.2223H91.8015L82.7185 52.3615L83.0154 53.8512C83.0355 53.9418 83.0808 54.0173 83.1663 54.0877C83.2519 54.1582 83.3374 54.1884 83.4481 54.1884H92.2947V59.0149H92.2997ZM92.2997 52.5628H84.7917L92.662 41.712L92.4205 43.6547C92.3752 44.007 92.345 44.3492 92.3299 44.6713C92.3098 44.9984 92.3047 45.3054 92.3047 45.5873V52.5628H92.2997ZM86.7643 51.5562H91.2933V45.5873C91.2933 45.4967 91.2933 45.4011 91.2933 45.3054L86.7643 51.5562Z" fill="#2D2D82"/>
<path d="M105.665 59.7346C104.643 59.7346 103.713 59.5988 102.867 59.3219C102.022 59.0502 101.302 58.6626 100.698 58.1594C100.094 57.6561 99.6265 57.0521 99.2943 56.3375C98.9622 55.6228 98.7961 54.8327 98.7961 53.957C98.7961 52.7893 99.083 51.8029 99.6566 50.9926C100.23 50.1874 101.126 49.5885 102.339 49.1959C101.373 48.7933 100.648 48.2246 100.17 47.4847C99.6919 46.7449 99.4503 45.8591 99.4503 44.8174C99.4503 44.0675 99.6013 43.3729 99.9082 42.7237C100.215 42.0745 100.638 41.5108 101.186 41.0327C101.735 40.5545 102.389 40.1821 103.149 39.9103C103.909 39.6436 104.749 39.5077 105.66 39.5077C106.571 39.5077 107.406 39.6436 108.171 39.9103C108.931 40.1771 109.585 40.5545 110.134 41.0327C110.682 41.5108 111.105 42.0745 111.412 42.7237C111.719 43.3729 111.87 44.0675 111.87 44.8174C111.87 45.8591 111.628 46.7449 111.145 47.4847C110.662 48.2246 109.942 48.7933 108.981 49.1959C110.194 49.5885 111.09 50.1874 111.663 50.9926C112.237 51.7979 112.524 52.7893 112.524 53.957C112.524 54.8327 112.358 55.6279 112.026 56.3375C111.694 57.0471 111.226 57.6561 110.622 58.1594C110.018 58.6626 109.298 59.0502 108.453 59.3219C107.618 59.5988 106.687 59.7346 105.665 59.7346ZM105.665 57.0974C106.224 57.0974 106.712 57.0169 107.129 56.8559C107.547 56.6948 107.904 56.4734 108.191 56.1915C108.478 55.9097 108.694 55.5725 108.84 55.1799C108.986 54.7874 109.062 54.3646 109.062 53.9066C109.062 52.8195 108.76 51.9992 108.161 51.4456C107.557 50.8869 106.732 50.6101 105.67 50.6101C104.608 50.6101 103.783 50.8869 103.179 51.4456C102.575 52.0042 102.278 52.8246 102.278 53.9066C102.278 54.3646 102.349 54.7874 102.495 55.1799C102.641 55.5725 102.857 55.9097 103.144 56.1915C103.431 56.4734 103.783 56.6948 104.206 56.8559C104.623 57.0169 105.111 57.0974 105.665 57.0974ZM105.665 47.9578C106.214 47.9578 106.671 47.8723 107.049 47.6961C107.421 47.525 107.723 47.2935 107.95 47.0066C108.176 46.7198 108.337 46.3926 108.433 46.0202C108.528 45.6528 108.579 45.2703 108.579 44.8777C108.579 44.5053 108.518 44.148 108.403 43.8108C108.282 43.4736 108.106 43.1766 107.869 42.9149C107.633 42.6532 107.331 42.4469 106.968 42.2909C106.601 42.1349 106.168 42.0594 105.67 42.0594C105.172 42.0594 104.734 42.1349 104.372 42.2909C104.004 42.4469 103.702 42.6532 103.461 42.9149C103.219 43.1766 103.043 43.4736 102.928 43.8108C102.812 44.148 102.756 44.5053 102.756 44.8777C102.756 45.2703 102.802 45.6528 102.902 46.0202C102.998 46.3876 103.159 46.7198 103.385 47.0066C103.612 47.2935 103.914 47.525 104.286 47.6961C104.659 47.8672 105.117 47.9578 105.665 47.9578Z" fill="#2D2D82"/>
<path d="M105.665 60.238C104.598 60.238 103.602 60.0921 102.711 59.8052C101.81 59.5133 101.025 59.0905 100.376 58.552C99.7221 58.0035 99.2038 57.3341 98.8415 56.559C98.4792 55.784 98.293 54.9083 98.293 53.9671C98.293 52.6989 98.615 51.6017 99.2491 50.7109C99.702 50.0717 100.341 49.5483 101.146 49.1457C100.567 48.7682 100.1 48.3052 99.7523 47.7667C99.2239 46.9463 98.9522 45.9599 98.9522 44.8275C98.9522 44.0072 99.1233 43.2321 99.4604 42.5175C99.7925 41.8078 100.266 41.1888 100.864 40.6654C101.458 40.147 102.173 39.7343 102.993 39.4474C103.803 39.1606 104.704 39.0146 105.67 39.0146C106.636 39.0146 107.537 39.1606 108.347 39.4474C109.167 39.7343 109.882 40.147 110.476 40.6654C111.075 41.1888 111.543 41.8129 111.88 42.5175C112.217 43.2321 112.388 44.0072 112.388 44.8275C112.388 45.9599 112.116 46.9514 111.583 47.7717C111.231 48.3102 110.763 48.7682 110.189 49.1457C110.999 49.5483 111.633 50.0717 112.091 50.7109C112.725 51.6017 113.047 52.6938 113.047 53.9671C113.047 54.9133 112.861 55.784 112.499 56.559C112.136 57.3341 111.618 58.0035 110.964 58.552C110.315 59.0905 109.53 59.5133 108.629 59.8052C107.728 60.0921 106.737 60.238 105.665 60.238ZM105.665 40.0162C104.815 40.0162 104.025 40.142 103.32 40.3886C102.621 40.6352 102.017 40.9825 101.519 41.4153C101.025 41.8481 100.638 42.3614 100.361 42.9402C100.089 43.519 99.9485 44.1481 99.9485 44.8175C99.9485 45.7536 100.165 46.5588 100.588 47.2131C101.005 47.8623 101.659 48.3706 102.525 48.733L103.788 49.2564L102.49 49.6792C101.388 50.0365 100.573 50.58 100.064 51.2897C99.556 52.0043 99.2944 52.9052 99.2944 53.9621C99.2944 54.7573 99.4453 55.487 99.7473 56.1312C100.044 56.7704 100.472 57.324 101.015 57.777C101.564 58.235 102.238 58.5973 103.018 58.849C103.808 59.1056 104.694 59.2365 105.66 59.2365C106.626 59.2365 107.512 59.1056 108.302 58.849C109.082 58.5973 109.751 58.235 110.305 57.777C110.848 57.324 111.271 56.7704 111.573 56.1312C111.875 55.4921 112.026 54.7623 112.026 53.9621C112.026 52.9052 111.769 52.0094 111.256 51.2897C110.748 50.575 109.932 50.0365 108.83 49.6792L107.537 49.2614L108.79 48.738C109.651 48.3807 110.3 47.8674 110.722 47.2181C111.15 46.5639 111.366 45.7636 111.366 44.8275C111.366 44.1582 111.231 43.524 110.954 42.9503C110.677 42.3665 110.29 41.8531 109.796 41.4253C109.298 40.9925 108.694 40.6453 107.995 40.3986C107.301 40.142 106.515 40.0162 105.665 40.0162ZM105.665 57.6008C105.051 57.6008 104.498 57.5102 104.025 57.3291C103.541 57.1479 103.129 56.8862 102.792 56.554C102.455 56.2218 102.193 55.8192 102.022 55.3562C101.856 54.9083 101.77 54.4251 101.77 53.9067C101.77 52.6787 102.127 51.7275 102.837 51.0733C103.531 50.4291 104.483 50.107 105.67 50.107C106.853 50.107 107.809 50.4341 108.503 51.0733C109.208 51.7275 109.57 52.6787 109.57 53.9067C109.57 54.4201 109.484 54.9083 109.318 55.3562C109.147 55.8142 108.891 56.2168 108.548 56.554C108.211 56.8862 107.799 57.1428 107.316 57.3291C106.833 57.5052 106.279 57.6008 105.665 57.6008ZM105.665 51.1135C104.729 51.1135 104.03 51.345 103.516 51.8131C103.018 52.2761 102.777 52.9606 102.777 53.9067C102.777 54.2993 102.837 54.6717 102.963 55.0039C103.084 55.331 103.255 55.6028 103.491 55.8343C103.728 56.0658 104.025 56.252 104.377 56.3879C104.739 56.5238 105.167 56.5943 105.66 56.5943C106.153 56.5943 106.586 56.5238 106.943 56.3879C107.295 56.252 107.592 56.0709 107.829 55.8343C108.065 55.6028 108.236 55.331 108.357 55.0039C108.483 54.6717 108.543 54.2993 108.543 53.9067C108.543 52.9606 108.302 52.2761 107.804 51.8131C107.301 51.345 106.601 51.1135 105.665 51.1135ZM105.665 48.4612C105.046 48.4612 104.513 48.3555 104.07 48.1542C103.627 47.9479 103.26 47.666 102.983 47.3188C102.711 46.9765 102.52 46.584 102.404 46.1461C102.299 45.7385 102.243 45.3107 102.243 44.8779C102.243 44.4501 102.309 44.0374 102.439 43.6498C102.575 43.2472 102.792 42.8849 103.084 42.5728C103.37 42.2608 103.733 42.0142 104.165 41.828C104.593 41.6468 105.096 41.5562 105.66 41.5562C106.224 41.5562 106.732 41.6468 107.155 41.828C107.587 42.0091 107.95 42.2608 108.231 42.5728C108.513 42.8798 108.73 43.2422 108.866 43.6398C109.001 44.0323 109.072 44.445 109.072 44.8728C109.072 45.3056 109.016 45.7334 108.911 46.1411C108.8 46.579 108.604 46.9715 108.332 47.3137C108.055 47.661 107.693 47.9428 107.245 48.1492C106.817 48.3555 106.284 48.4612 105.665 48.4612ZM105.665 42.5628C105.232 42.5628 104.865 42.6282 104.563 42.754C104.266 42.8798 104.02 43.0509 103.828 43.2573C103.632 43.4687 103.496 43.7002 103.401 43.972C103.305 44.2538 103.255 44.5608 103.255 44.8779C103.255 45.2251 103.295 45.5674 103.38 45.8945C103.461 46.1965 103.587 46.4582 103.773 46.6947C103.949 46.9161 104.191 47.1024 104.493 47.2433C104.8 47.3842 105.192 47.4547 105.665 47.4547C106.138 47.4547 106.531 47.3842 106.838 47.2433C107.139 47.1024 107.381 46.9212 107.557 46.6947C107.743 46.4632 107.869 46.2015 107.95 45.8945C108.035 45.5674 108.075 45.2251 108.075 44.8779C108.075 44.5608 108.025 44.2588 107.925 43.977C107.829 43.7052 107.683 43.4636 107.492 43.2523C107.306 43.0459 107.059 42.8798 106.762 42.754C106.465 42.6282 106.098 42.5628 105.665 42.5628Z" fill="#2D2D82"/>
</g>
<defs>
<clipPath id="clip0_1_2145">
<rect width="126" height="115" fill="white"/>
</clipPath>
</defs>
</svg>
