<svg width="201" height="47" viewBox="0 0 201 47" fill="none" xmlns="http://www.w3.org/2000/svg">
<path d="M104.905 46.9997C95.33 46.9997 85.699 46.1098 76.2773 44.3651C74.6594 44.0638 73.425 42.5924 73.5854 40.9458C73.7667 39.075 75.4893 37.8068 77.2816 38.1361C86.3685 39.8317 95.6647 40.6936 104.905 40.6936C108.225 40.6936 111.593 40.5814 114.913 40.3642C118.107 40.147 121.37 39.8037 124.613 39.3342C126.433 39.075 128.093 40.4133 128.198 42.2911C128.289 43.9447 127.005 45.3601 125.38 45.5983C122.026 46.0818 118.644 46.4391 115.331 46.6634C111.865 46.8876 108.364 46.9997 104.905 46.9997ZM158.499 36.5736C157.174 36.5736 155.926 35.7258 155.501 34.3524C154.999 32.7409 155.954 31.0312 157.523 30.4146C158.046 30.2114 158.569 30.0012 159.092 29.784L166.966 26.4137C167.482 26.1615 167.991 25.8742 168.563 25.5589L179.407 19.5891L182.636 17.389C186.967 14.4462 191.416 11.4262 195.503 7.95787C196.758 6.89284 198.627 6.97692 199.757 8.18209L199.861 8.29422C201.033 9.58347 200.922 11.6014 199.596 12.7295C195.238 16.4361 190.635 19.5611 186.158 22.6021L182.964 24.7812C182.803 24.8933 182.601 25.0194 182.392 25.1385L171.603 31.0802C170.969 31.4306 170.327 31.788 169.651 32.1173C169.602 32.1383 169.56 32.1593 169.511 32.1803L161.512 35.6066C160.857 35.8729 160.257 36.1111 159.657 36.3493C159.267 36.5035 158.883 36.5736 158.499 36.5736ZM43.6605 34.0371C43.1863 34.0371 42.7051 33.932 42.2518 33.7008L33.2624 29.1534C32.1815 28.6139 30.9541 27.9973 29.7546 27.3246C29.6988 27.2896 29.643 27.2615 29.5942 27.2265L17.5921 19.5541C17.3759 19.414 17.2016 19.2879 17.0272 19.1477L10.5345 14.0187C7.13825 11.5664 4.08369 8.6796 1.47546 6.15015C0.2899 4.99403 0.0597623 3.09519 1.09887 1.80594C2.27746 0.341522 4.41146 0.236432 5.72953 1.51167C8.21223 3.929 11.1273 6.68966 14.2516 8.93884C14.2865 8.96686 14.3283 8.99489 14.3632 9.02291L20.9047 14.1939C20.9326 14.2149 20.9605 14.236 20.9954 14.257L32.8928 21.8593C33.9528 22.4409 35.0826 23.0155 36.0868 23.5199L44.9576 28.0043C46.4082 28.74 47.1893 30.4496 46.6174 31.9771C46.1223 33.2804 44.9158 34.0371 43.6605 34.0371Z" fill="#FAA019"/>
</svg>
