<svg width="202" height="49" viewBox="0 0 202 49" fill="none" xmlns="http://www.w3.org/2000/svg">
<path d="M105.905 48.9997C96.33 48.9997 86.699 48.1098 77.2773 46.3651C75.6594 46.0638 74.425 44.5924 74.5854 42.9458C74.7667 41.075 76.4893 39.8068 78.2816 40.1361C87.3685 41.8317 96.6647 42.6936 105.905 42.6936C109.225 42.6936 112.593 42.5814 115.913 42.3642C119.107 42.147 122.37 41.8037 125.613 41.3342C127.433 41.075 129.093 42.4133 129.198 44.2911C129.289 45.9447 128.005 47.3601 126.38 47.5983C123.026 48.0818 119.644 48.4391 116.331 48.6634C112.865 48.8876 109.364 48.9997 105.905 48.9997ZM159.499 38.5736C158.174 38.5736 156.926 37.7258 156.501 36.3524C155.999 34.7409 156.954 33.0312 158.523 32.4146C159.046 32.2114 159.569 32.0012 160.092 31.784L167.966 28.4137C168.482 28.1615 168.991 27.8742 169.563 27.5589L180.407 21.5891L183.636 19.389C187.967 16.4462 192.416 13.4262 196.503 9.95787C197.758 8.89284 199.627 8.97692 200.757 10.1821L200.861 10.2942C202.033 11.5835 201.922 13.6014 200.596 14.7295C196.238 18.4361 191.635 21.5611 187.158 24.6021L183.964 26.7812C183.803 26.8933 183.601 27.0194 183.392 27.1385L172.603 33.0802C171.969 33.4306 171.327 33.788 170.651 34.1173C170.602 34.1383 170.56 34.1593 170.511 34.1803L162.512 37.6066C161.857 37.8729 161.257 38.1111 160.657 38.3494C160.267 38.5035 159.883 38.5736 159.499 38.5736ZM44.6605 36.0371C44.1863 36.0371 43.7051 35.932 43.2518 35.7008L34.2624 31.1534C33.1815 30.6139 31.9541 29.9973 30.7546 29.3246C30.6988 29.2896 30.643 29.2615 30.5942 29.2265L18.5921 21.5541C18.3759 21.414 18.2016 21.2879 18.0272 21.1477L11.5345 16.0187C8.13825 13.5664 5.08369 10.6796 2.47546 8.15015C1.2899 6.99403 1.05976 5.09519 2.09887 3.80594C3.27746 2.34152 5.41146 2.23643 6.72953 3.51167C9.21223 5.929 12.1273 8.68966 15.2516 10.9388C15.2865 10.9669 15.3283 10.9949 15.3632 11.0229L21.9047 16.1939C21.9326 16.2149 21.9605 16.236 21.9954 16.257L33.8928 23.8593C34.9528 24.4409 36.0826 25.0155 37.0868 25.5199L45.9576 30.0043C47.4082 30.74 48.1893 32.4497 47.6174 33.9771C47.1223 35.2804 45.9158 36.0371 44.6605 36.0371Z" fill="#FAA019"/>
<path d="M10.2514 29.6122C8.99609 29.6122 7.81053 28.8484 7.32236 27.6012C5.4952 22.8857 3.7866 18.1141 2.24537 13.4125C2.2384 13.3845 2.22445 13.3494 2.21748 13.3214C1.49917 10.9041 0.8227 8.19241 0.076495 4.78711C-0.146669 3.76412 0.146234 2.69909 0.864544 1.94236C1.57588 1.18562 2.62196 0.828296 3.64712 0.996459C5.86482 1.36081 8.8078 1.80923 11.9251 2.07549C16.4303 2.32773 20.9772 2.45385 25.4405 2.46787C27.177 2.46787 28.5788 3.88324 28.5718 5.62793C28.5718 7.36562 27.1631 8.77397 25.4335 8.77397C25.4335 8.77397 25.4335 8.77397 25.4266 8.77397C20.8377 8.76697 16.1583 8.63387 11.5276 8.37462C11.4997 8.37462 11.4648 8.36761 11.4369 8.36761C9.97941 8.24149 8.57068 8.08031 7.24565 7.91215C7.56645 9.19439 7.88724 10.3575 8.21502 11.4786C9.72138 16.0611 11.3951 20.7136 13.1734 25.317C13.8011 26.9426 12.9991 28.7644 11.3881 29.395C11.0115 29.5491 10.628 29.6122 10.2514 29.6122Z" fill="#FAA019"/>
</svg>
