<svg width="131" height="53" viewBox="0 0 131 53" fill="none" xmlns="http://www.w3.org/2000/svg">
<path d="M23.6807 18.1189C27.3442 18.1189 30.6307 20.3946 31.9335 23.8414L41.4824 49.1071C42.4016 50.8771 41.1253 52.9931 39.1414 52.9931C38.1627 52.9931 37.2634 52.4475 36.8071 51.5758L23.6807 18.1189Z" fill="#068ABF"/>
<path d="M49.1199 19.0706C48.9678 19.2636 48.8488 19.4898 48.7562 19.7161L36.8201 49.1073C35.9009 50.8773 37.1772 52.9933 39.161 52.9933C40.1397 52.9933 41.0391 52.4477 41.4954 51.576C41.4954 51.576 53.6233 21.9585 53.6696 21.8454C54.4565 20.0821 53.1802 18.0459 51.2228 18.0459C50.3962 18.0459 49.6225 18.4318 49.1199 19.0706Z" fill="url(#paint0_linear_34_18)"/>
<path d="M48.7694 21.8454C48.8223 21.9585 61.0758 51.5161 61.0758 51.5161C61.5321 52.3878 62.4315 52.9334 63.4102 52.9334C65.394 52.9334 66.6703 50.8107 65.7511 49.0474L53.5901 19.4832C53.1272 18.5982 52.2147 18.0459 51.2227 18.0459C49.2587 18.0459 47.9825 20.0887 48.7694 21.8454Z" fill="url(#paint1_linear_34_18)"/>
<path d="M73.5149 19.0706C73.3628 19.2636 73.2438 19.4832 73.1512 19.7161L61.0828 49.0474C60.1636 50.8174 61.4399 52.9334 63.4237 52.9334C64.4024 52.9334 65.3018 52.3878 65.7581 51.5161C65.7581 51.5161 78.0116 21.9652 78.0645 21.8454C78.8514 20.0821 77.5752 18.0459 75.6178 18.0459C74.7912 18.0459 74.0175 18.4318 73.5149 19.0706Z" fill="url(#paint2_linear_34_18)"/>
<path d="M103.16 18.1189C99.4964 18.1189 96.2098 20.3946 94.9071 23.8414L85.3582 49.1071C84.439 50.8771 85.7153 52.9931 87.6991 52.9931C88.6778 52.9931 89.5772 52.4475 90.0334 51.5758L103.16 18.1189Z" fill="#F89F20"/>
<path d="M73.164 21.8454C73.2169 21.9585 85.3382 51.576 85.3382 51.576C85.7945 52.4477 86.6938 52.9933 87.6725 52.9933C89.6564 52.9933 90.9326 50.8706 90.0134 49.1073L78.0773 19.7161C77.9847 19.4832 77.8657 19.2636 77.7136 19.0706C77.211 18.4318 76.4373 18.0459 75.6107 18.0459C73.6533 18.0459 72.377 20.0887 73.164 21.8454Z" fill="url(#paint3_linear_34_18)"/>
<path d="M1.43498 0C0.641444 0 0 0.645449 0 1.44394V51.4895C0 52.2814 0.641444 52.9335 1.43498 52.9335C2.22191 52.9335 2.86996 52.288 2.86996 51.4895V1.44394C2.86335 0.645449 2.22191 0 1.43498 0Z" fill="#434343"/>
<path d="M127.185 40.8495H129.572C130.359 40.8495 131.007 40.2041 131.007 39.4056C131.007 38.6138 130.365 37.9617 129.572 37.9617H126.133L118.859 19.0174C118.661 18.4318 118.118 18.0459 117.503 18.0459C116.888 18.0459 116.346 18.4385 116.148 19.0174L108.874 37.9617H105.435C104.648 37.9617 104 38.6071 104 39.4056C104 40.1974 104.641 40.8495 105.435 40.8495H107.822L104.086 51.0836L104.079 51.1035C103.96 51.4695 103.987 51.8621 104.159 52.2081C104.331 52.5541 104.622 52.807 104.992 52.9334C105.739 53.1796 106.539 52.7804 106.797 52.0351L110.904 40.8562H124.123L128.229 52.0351C128.428 52.614 128.97 53.0066 129.585 53.0066C129.737 53.0066 129.896 52.98 130.035 52.9334C130.398 52.8136 130.689 52.5541 130.861 52.2081C131.033 51.8621 131.06 51.4762 130.941 51.1102L127.185 40.8495ZM123.052 37.9683H111.955L117.503 23.835L123.052 37.9683Z" fill="#434343"/>
<path d="M13.5033 18.0459C12.7164 18.0459 12.0684 18.6913 12.0684 19.4898V51.556C12.0684 52.3478 12.7098 52.9999 13.5033 52.9999C14.2903 52.9999 14.9383 52.3545 14.9383 51.556V19.4898C14.9383 18.6913 14.2903 18.0459 13.5033 18.0459Z" fill="#434343"/>
<defs>
<linearGradient id="paint0_linear_34_18" x1="35.359" y1="55.2979" x2="55.7467" y2="14.7755" gradientUnits="userSpaceOnUse">
<stop stop-color="#068ABF"/>
<stop offset="0.2152" stop-color="#068ABF"/>
<stop offset="0.3475" stop-color="#136EAB"/>
<stop offset="0.5763" stop-color="#27418C"/>
<stop offset="0.6922" stop-color="#2F3080"/>
<stop offset="1" stop-color="#2F3080"/>
</linearGradient>
<linearGradient id="paint1_linear_34_18" x1="50.0966" y1="17.7923" x2="63.1119" y2="49.4292" gradientUnits="userSpaceOnUse">
<stop stop-color="#2F3080"/>
<stop offset="0.4649" stop-color="#722D7D"/>
<stop offset="0.8206" stop-color="#9E2B7B"/>
<stop offset="1" stop-color="#AF2A7A"/>
</linearGradient>
<linearGradient id="paint2_linear_34_18" x1="60.0563" y1="53.5427" x2="78.8581" y2="18.0933" gradientUnits="userSpaceOnUse">
<stop stop-color="#B0317A"/>
<stop offset="0.4009" stop-color="#B13379"/>
<stop offset="0.575" stop-color="#B63A74"/>
<stop offset="0.7051" stop-color="#BD476C"/>
<stop offset="0.8135" stop-color="#C85960"/>
<stop offset="0.9072" stop-color="#D77051"/>
<stop offset="0.9912" stop-color="#E88C3E"/>
<stop offset="1" stop-color="#EA8F3C"/>
</linearGradient>
<linearGradient id="paint3_linear_34_18" x1="89.9685" y1="54.6124" x2="72.7017" y2="15.448" gradientUnits="userSpaceOnUse">
<stop stop-color="#F89F20"/>
<stop offset="0.1601" stop-color="#F49B28"/>
<stop offset="0.3994" stop-color="#EA8F3C"/>
<stop offset="0.6843" stop-color="#D67354"/>
<stop offset="1" stop-color="#C3586C"/>
</linearGradient>
</defs>
</svg>
