<svg width="93" height="129" viewBox="0 0 93 129" fill="none" xmlns="http://www.w3.org/2000/svg">
<g clip-path="url(#clip0_1_1242)">
<g clip-path="url(#clip1_1_1242)">
<path d="M78.2533 128H13.7467C13.1257 120.678 7.25443 114.796 0 114.172V90.8288C7.30383 90.2116 13.1398 84.3439 13.7538 77.0004H78.2533C78.8743 84.3439 84.7032 90.2116 92 90.8288V114.172C84.7032 114.789 78.8672 120.657 78.2533 128Z" fill="white"/>
</g>
<path d="M46.4932 85.9235C37.4661 85.9235 30.1283 93.2627 30.1283 102.283C30.1283 111.304 37.4729 118.65 46.4932 118.65C55.5202 118.65 62.8648 111.31 62.8648 102.283C62.8715 93.2627 55.5269 85.9235 46.4932 85.9235ZM60.4121 102.283C60.4121 109.953 54.1688 116.192 46.4932 116.192C38.8242 116.192 32.581 109.953 32.581 102.283C32.581 94.6131 38.8242 88.3744 46.4932 88.3744C54.1688 88.3744 60.4121 94.6131 60.4121 102.283Z" fill="#B91E73"/>
<path d="M47.3917 100.339V96.8816C47.8377 97.1517 48.1282 97.5973 48.2634 98.2252L48.2971 98.3805L51.135 98.0092L51.108 97.8404C50.9458 96.8411 50.5201 96.0106 49.858 95.376C49.2363 94.7886 48.4255 94.4307 47.3985 94.2889V93.2897H45.6282V94.2889C44.5134 94.424 43.6485 94.8561 42.9728 95.5988C42.2634 96.3617 41.9053 97.3137 41.9053 98.4278C41.9053 99.5418 42.2228 100.494 42.8377 101.25C43.4323 102 44.3715 102.567 45.6282 102.938V106.658C45.3985 106.51 45.1755 106.294 44.9661 106.017C44.6823 105.652 44.4931 105.22 44.4053 104.741L44.3782 104.585L41.4661 104.93L41.4931 105.105C41.7026 106.408 42.1755 107.448 42.9053 108.191C43.608 108.88 44.5269 109.312 45.6282 109.474V111.317H47.3985V109.453C48.662 109.231 49.662 108.704 50.3782 107.894C51.1282 107.063 51.5066 106.01 51.5066 104.774C51.5066 103.64 51.2161 102.749 50.6147 102.047C50.0201 101.324 48.9728 100.771 47.3917 100.339ZM48.7363 105.099C48.7363 105.558 48.5944 105.943 48.3107 106.28C48.0607 106.564 47.7566 106.76 47.385 106.874V103.451C47.8512 103.613 48.1688 103.809 48.385 104.072C48.6215 104.369 48.7363 104.707 48.7363 105.099ZM44.7026 98.2995C44.7026 97.9484 44.8039 97.6378 44.9998 97.3543C45.1688 97.1247 45.3782 96.9491 45.6147 96.8209V99.7241C45.3309 99.5621 45.1147 99.3798 44.9728 99.1705C44.7971 98.9004 44.7026 98.6168 44.7026 98.2995Z" fill="#B91E73"/>
<path d="M91.7703 75.5663H78.5405H47.7297V67.2143C47.8108 67.2481 47.8919 67.2818 47.9797 67.2953C47.9865 67.2953 47.9865 67.2953 47.9932 67.2953C52.2027 68.1326 56.2095 68.5512 59.9189 68.5512C69.3243 68.5512 76.7432 65.8977 81.9797 60.6651C89.3041 53.3596 91.5946 41.6115 88.6081 26.6765C88.5068 26.1904 88.1284 25.8123 87.6419 25.711C83.4257 24.8738 79.4054 24.4484 75.7027 24.4484C66.3041 24.4484 58.8784 27.1019 53.6487 32.3345C51.0203 34.9542 49.0541 38.1546 47.7297 41.868V21.9232C47.75 21.8962 47.7635 21.8625 47.7838 21.8287C47.7973 21.8017 47.8108 21.7814 47.8243 21.7544C47.8716 21.6599 47.9122 21.5586 47.9324 21.4573C47.9324 21.4506 47.9324 21.4506 47.9392 21.4438C49.4527 13.8346 48.2635 7.82545 44.5 4.05119C40.7162 0.317439 34.7027 -0.870878 27.0946 0.634775C26.6081 0.736052 26.2297 1.1074 26.1284 1.60028C24.6149 9.19606 25.8108 15.2052 29.5811 18.9727C32.2973 21.6802 36.1149 23.0575 40.9392 23.0575C42.3041 23.0575 43.7568 22.9427 45.2703 22.7132V48.1877C44.4054 46.3648 43.2838 44.7443 41.8986 43.3602C38.2297 39.7075 33.0473 37.8507 26.5 37.8507C23.9324 37.8507 21.1554 38.1411 18.25 38.7217C17.7568 38.823 17.3784 39.2011 17.2838 39.6872C15.2297 50.0512 16.8378 58.2209 21.9392 63.305C25.5946 66.9713 30.7703 68.828 37.3311 68.828C39.8041 68.828 42.473 68.5512 45.2703 68.011V75.5663H14.4595H1.22973C0.554054 75.5663 0 76.1132 0 76.7951V90.0152V114.558V127.778C0 128.453 0.547297 129.007 1.22973 129.007H14.4662H14.5068H14.5135H78.5473H91.777C92.4527 129.007 93.0068 128.46 93.0068 127.778V114.558V90.0152V76.7951C93 76.1132 92.446 75.5663 91.7703 75.5663ZM90.5405 115.841V126.549H79.8311C80.4122 120.878 84.8716 116.421 90.5405 115.841ZM77.3784 126.549H15.6149C15.0203 119.588 9.39865 113.984 2.4527 113.39V91.1765C9.44595 90.5823 15.0338 85.0053 15.6216 78.0172H77.3784C77.973 85.0053 83.5541 90.5891 90.5405 91.1765V113.39C83.5541 113.977 77.973 119.561 77.3784 126.549ZM2.4527 126.549V115.841C8.12838 116.421 12.5878 120.878 13.1689 126.549H2.4527ZM2.4527 88.7256V78.0172H13.1689C12.5946 83.6887 8.12838 88.1449 2.4527 88.7256ZM90.5405 88.7256C84.8716 88.1517 80.4054 83.6887 79.8311 78.0172H90.5405V88.7256ZM28.3851 2.88988C34.75 1.78258 39.723 2.7886 42.7568 5.80666C45.527 8.58165 46.6014 12.9838 45.9054 18.5946L38.4595 10.8165C37.9932 10.3304 37.2162 10.3101 36.723 10.776C36.2365 11.2419 36.2162 12.0183 36.6824 12.5112L44.223 20.3838C43.0811 20.5323 41.9797 20.6066 40.9392 20.6066C36.7905 20.6066 33.5541 19.4723 31.3176 17.2442C28.2905 14.2127 27.277 9.25008 28.3851 2.88988ZM19.5405 40.9768C28.6622 39.3159 35.7905 40.7405 40.1689 45.0954C44.2838 49.2073 45.7838 55.77 44.5473 64.1558L40.6014 60.0439L41.2162 50.5509C41.2635 49.8757 40.75 49.295 40.0743 49.2478C39.75 49.214 39.4459 49.3153 39.2027 49.5246C38.9459 49.7407 38.7905 50.058 38.7703 50.3956L38.3041 57.647L28.1081 47.0467C27.6419 46.5606 26.8581 46.5403 26.3716 47.0129C26.1351 47.2425 26 47.5463 25.9932 47.8704C25.9865 48.1945 26.1081 48.5118 26.3378 48.7481L30.1351 52.7047L24.7905 54.7235C24.1554 54.9598 23.8378 55.6687 24.0743 56.3034C24.2568 56.776 24.7162 57.0934 25.223 57.0934C25.3716 57.0934 25.5135 57.0664 25.6554 57.0124L31.9797 54.6222L42.8446 65.9315C40.9189 66.2151 39.0608 66.3704 37.3243 66.3704C31.4392 66.3704 26.8514 64.7567 23.6689 61.5698C19.3108 57.2284 17.8851 50.1053 19.5405 40.9768ZM59.9189 66.107C57.0338 66.107 53.9324 65.8167 50.6959 65.2833L55.0203 60.7731L70.7297 58.2884C71.0541 58.2344 71.3378 58.0656 71.5338 57.7956C71.7297 57.5255 71.8041 57.2082 71.75 56.8841C71.6959 56.56 71.5203 56.2697 71.25 56.0738C70.9865 55.8848 70.6622 55.8105 70.3514 55.8645L57.8311 57.8496L65.3649 49.9905C65.3784 49.977 65.3987 49.9635 65.4122 49.9432C65.4189 49.9365 65.4189 49.9365 65.4189 49.9297L75.3649 39.5589C75.8311 39.0728 75.8176 38.2963 75.3243 37.8237C74.8378 37.3578 74.0608 37.3781 73.5878 37.8642L65.473 46.331L64.4797 34.0697C64.4527 33.7389 64.2838 33.4215 64.0203 33.2055C63.7703 33.0029 63.4595 32.9084 63.1554 32.9489C62.8311 32.9759 62.5338 33.1245 62.3176 33.3743C62.1081 33.6241 62 33.9414 62.027 34.2723L63.1959 48.7009L49.0068 63.5076C46.8649 50.5509 49.0473 40.3962 55.3784 34.0832C60.1351 29.3299 66.973 26.9128 75.7027 26.9128C79.0068 26.9128 82.5878 27.2706 86.3581 27.9728C88.9392 41.6722 86.8243 52.3739 80.2432 58.9366C75.4797 63.6966 68.6419 66.107 59.9189 66.107Z" fill="#2D2D82"/>
<path d="M8.35138 39.6536C11.1216 39.6536 13.3716 37.412 13.3716 34.6505C13.3716 31.889 11.1216 29.6474 8.35138 29.6474C5.58786 29.6474 3.34462 31.8957 3.34462 34.6505C3.33786 37.4052 5.58786 39.6536 8.35138 39.6536ZM5.79732 34.6505C5.79732 33.2461 6.94597 32.0983 8.35138 32.0983C9.76354 32.0983 10.9189 33.2461 10.9189 34.6505C10.9189 36.0549 9.7703 37.2027 8.35138 37.2027C6.93921 37.2027 5.79732 36.0549 5.79732 34.6505Z" fill="#2D2D82"/>
<path d="M84.5 13.0581C87.2636 13.0581 89.5068 10.8098 89.5068 8.05503C89.5068 5.29354 87.2568 3.05194 84.5 3.05194C81.7433 3.05194 79.4933 5.29354 79.4933 8.05503C79.4933 10.8098 81.7433 13.0581 84.5 13.0581ZM81.946 8.05503C81.946 6.65065 83.0946 5.50285 84.5 5.50285C85.9054 5.50285 87.0541 6.6439 87.0541 8.05503C87.0541 9.4594 85.9054 10.6072 84.5 10.6072C83.0946 10.6072 81.946 9.4594 81.946 8.05503Z" fill="#2D2D82"/>
</g>
<defs>
<clipPath id="clip0_1_1242">
<rect width="93" height="129" fill="white"/>
</clipPath>
<clipPath id="clip1_1_1242">
<rect width="92" height="51" fill="white" transform="translate(0 77.0004)"/>
</clipPath>
</defs>
</svg>
